# This file uses centimeters as units for non-parametric coordinates.

mtllib Female_Cylinder_Head_Obj.mtl
g default
v -0.146592 0.008269 3.707709
v -0.098448 0.008269 3.513932
v -0.153643 0.008269 3.322045
v -0.297386 0.008269 3.183463
v -0.491162 0.008269 3.135320
v -0.683049 0.008269 3.190514
v -0.821631 0.008269 3.334258
v -0.869775 0.008269 3.528034
v -0.814580 0.008269 3.719921
v -0.670837 0.008269 3.858503
v -0.477060 0.008269 3.906646
v -0.285173 0.008269 3.851452
v -0.146592 0.994608 3.707709
v -0.098448 0.994608 3.513932
v -0.153643 0.994608 3.322045
v -0.297386 0.994608 3.183463
v -0.491162 0.994608 3.135320
v -0.683049 0.994608 3.190514
v -0.821631 0.994608 3.334258
v -0.869775 0.994608 3.528034
v -0.814580 0.994608 3.719921
v -0.670837 0.994608 3.858503
v -0.477060 0.994608 3.906646
v -0.285173 0.994608 3.851452
vt 0.239950 0.257859
vt 0.207739 0.239286
vt 0.208251 0.708997
vt 0.240427 0.690372
vt 0.170532 0.239340
vt 0.171049 0.709004
vt 0.138455 0.258027
vt 0.138949 0.690373
vt 0.120140 0.290293
vt 0.120583 0.658151
vt 0.120372 0.327297
vt 0.120742 0.621149
vt 0.594319 0.379001
vt 0.594642 0.568015
vt 0.170827 0.378740
vt 0.171108 0.569635
vt 0.208460 0.378170
vt 0.208730 0.570122
vt 0.240221 0.359514
vt 0.240530 0.588716
vt 0.258671 0.327383
vt 0.259029 0.620814
vt 0.258573 0.290156
vt 0.258996 0.658047
vt 0.632395 0.378899
vt 0.632702 0.568005
vt 0.325466 0.569602
vt 0.364198 0.569402
vt 0.286564 0.569791
vt 0.247663 0.569982
vt 0.139379 0.589052
vt 0.556544 0.568172
vt 0.518330 0.568386
vt 0.479994 0.568601
vt 0.441539 0.568858
vt 0.402924 0.569155
vt 0.325154 0.378321
vt 0.363896 0.378390
vt 0.286264 0.378256
vt 0.247383 0.378186
vt 0.139065 0.359370
vt 0.556235 0.378969
vt 0.518013 0.378879
vt 0.479677 0.378793
vt 0.441218 0.378669
vt 0.402627 0.378490
vn 0.875021 0.000000 0.484086
vn 0.999833 0.000000 -0.018280
vn 0.999833 0.000000 -0.018280
vn 0.875021 0.000000 0.484086
vn 0.856741 0.000000 -0.515747
vn 0.856741 0.000000 -0.515747
vn 0.484086 0.000000 -0.875021
vn 0.484086 0.000000 -0.875021
vn -0.018280 0.000000 -0.999833
vn -0.018280 0.000000 -0.999833
vn -0.515747 0.000000 -0.856741
vn -0.515747 0.000000 -0.856741
vn -0.875020 0.000000 -0.484086
vn -0.875020 0.000000 -0.484086
vn -0.999833 0.000000 0.018279
vn -0.999833 0.000000 0.018279
vn -0.856741 0.000000 0.515747
vn -0.856741 0.000000 0.515747
vn -0.484085 0.000000 0.875021
vn -0.484085 0.000000 0.875021
vn 0.018280 0.000000 0.999833
vn 0.018280 0.000000 0.999833
vn 0.515746 0.000000 0.856741
vn 0.515746 0.000000 0.856741
vn 0.000000 -1.000000 0.000000
vn 0.000000 -1.000000 0.000000
vn 0.000000 -1.000000 -0.000000
vn -0.000000 -1.000000 0.000000
vn -0.000000 -1.000000 0.000000
vn 0.000000 -1.000000 0.000000
vn 0.000000 -1.000000 -0.000000
vn 0.000000 -1.000000 -0.000000
vn 0.000000 -1.000000 0.000000
vn 0.000000 -1.000000 0.000000
vn 0.000000 -1.000000 0.000000
vn 0.000000 -1.000000 0.000000
vn 0.000000 1.000000 0.000000
vn 0.000000 1.000000 0.000000
vn 0.000000 1.000000 0.000000
vn 0.000000 1.000000 0.000000
vn 0.000000 1.000000 0.000000
vn 0.000000 1.000000 0.000000
vn 0.000000 1.000000 0.000000
vn 0.000000 1.000000 0.000000
vn 0.000000 1.000000 0.000000
vn 0.000000 1.000000 0.000000
vn 0.000000 1.000000 0.000000
vn 0.000000 1.000000 0.000000
s 1
g pCylinder1
usemtl lambert7SG
f 1/38/1 2/46/2 14/36/3 13/28/4
f 2/46/2 3/45/5 15/35/6 14/36/3
f 3/45/5 4/44/7 16/34/8 15/35/6
f 4/44/7 5/43/9 17/33/10 16/34/8
f 5/43/9 6/42/11 18/32/12 17/33/10
f 6/42/11 7/13/13 19/14/14 18/32/12
f 7/13/13 8/25/15 20/26/16 19/14/14
f 8/15/15 9/17/17 21/18/18 20/16/16
f 9/17/17 10/40/19 22/30/20 21/18/18
f 10/40/19 11/39/21 23/29/22 22/30/20
f 11/39/21 12/37/23 24/27/24 23/29/22
f 12/37/23 1/38/1 13/28/4 24/27/24
s 2
f 2/2/25 1/1/26 8/15/27
f 3/5/28 2/2/25 8/15/27
f 4/7/29 3/5/28 8/15/27
f 5/9/30 4/7/29 8/15/27
f 6/11/31 5/9/30 8/15/27
f 7/41/32 6/11/31 8/15/27
f 10/19/33 9/17/34 8/15/27
f 11/21/35 10/19/33 8/15/27
f 12/23/36 11/21/35 8/15/27
f 1/1/26 12/23/36 8/15/27
s 4
f 13/4/37 14/3/38 20/16/39
f 14/3/38 15/6/40 20/16/39
f 15/6/40 16/8/41 20/16/39
f 16/8/41 17/10/42 20/16/39
f 17/10/42 18/12/43 20/16/39
f 18/12/43 19/31/44 20/16/39
f 21/18/45 22/20/46 20/16/39
f 22/20/46 23/22/47 20/16/39
f 23/22/47 24/24/48 20/16/39
f 24/24/48 13/4/37 20/16/39
