# This file uses centimeters as units for non-parametric coordinates.

mtllib Female_Cube_Head_Obj.mtl
g default
v -0.608463 0.640593 10.302773
v -0.836350 0.412706 10.302773
v -0.608463 0.184819 10.302773
v -0.380576 0.412706 10.302773
v -0.608463 0.595032 10.603186
v -0.318217 0.431612 10.170291
v -0.608463 0.721858 10.170291
v -0.608463 0.141366 10.170291
v -0.898709 0.431612 10.170291
v -0.234488 0.520745 9.991384
v -0.608463 0.894720 9.991384
v -0.608463 0.146770 9.991384
v -0.982438 0.520745 9.991384
v -1.087291 0.003824 10.036793
v -0.587291 0.003824 10.036793
v -0.087291 0.003824 10.036793
v -1.087291 0.503824 10.036793
v -0.587291 0.503824 10.036793
v -0.087291 0.503824 10.036793
v -1.087291 1.003824 10.036793
v -0.587291 1.003824 10.036793
v -0.087291 1.003824 10.036793
v -1.087291 1.003824 9.536793
v -0.587291 1.003824 9.536793
v -0.087291 1.003824 9.536793
v -1.087291 1.003824 9.036793
v -0.587291 1.003824 9.036793
v -0.087291 1.003824 9.036793
v -1.087291 0.503824 9.036793
v -0.587291 0.503824 9.036793
v -0.087291 0.503824 9.036793
v -1.087291 0.003824 9.036793
v -0.587291 0.003824 9.036793
v -0.087291 0.003824 9.036793
v -1.087291 0.003824 9.536793
v -0.587291 0.003824 9.536793
v -0.087291 0.003824 9.536793
v -0.087291 0.503824 9.536793
v -1.087291 0.503824 9.536793
v -0.632260 0.640593 8.779999
v -0.404373 0.412706 8.779999
v -0.632260 0.184819 8.779999
v -0.860147 0.412706 8.779999
v -0.632260 0.595032 8.479586
v -0.922506 0.431612 8.912480
v -0.632260 0.721858 8.912480
v -0.632260 0.141366 8.912480
v -0.342014 0.431612 8.912480
v -1.006235 0.520745 9.091388
v -0.632260 0.894720 9.091388
v -0.632260 0.146770 9.091388
v -0.258285 0.520745 9.091388
vt 0.754981 0.876454
vt 0.669766 0.851521
vt 0.756567 0.792076
vt 0.626178 0.780181
vt 0.886958 0.785406
vt 0.840673 0.854690
vt 0.859742 0.886372
vt 0.754201 0.921297
vt 0.922216 0.798015
vt 0.649448 0.882519
vt 0.590460 0.791352
vt 0.877894 0.938550
vt 0.753197 0.987749
vt 0.960616 0.826499
vt 0.629394 0.934040
vt 0.550567 0.818208
vt 0.153513 0.723554
vt 0.216469 0.723554
vt 0.216635 0.786842
vt 0.153513 0.786842
vt 0.279423 0.723554
vt 0.279423 0.786842
vt 0.216802 0.851464
vt 0.153513 0.851464
vt 0.279423 0.851464
vt 0.279423 0.977375
vt 0.279423 0.914086
vt 0.342711 0.913920
vt 0.342711 0.977208
vt 0.342711 0.851464
vt 0.407000 0.913753
vt 0.407000 0.977041
vt 0.407000 0.851464
vt 0.533244 0.851464
vt 0.469956 0.851464
vt 0.469789 0.786842
vt 0.533077 0.786842
vt 0.407000 0.786842
vt 0.469622 0.723554
vt 0.532911 0.723554
vt 0.407000 0.723554
vt 0.407000 0.597310
vt 0.407000 0.660599
vt 0.342711 0.660766
vt 0.342711 0.597477
vt 0.342711 0.723554
vt 0.279423 0.660933
vt 0.279423 0.597644
vt 0.342711 0.786842
vt 0.026603 0.723554
vt 0.090225 0.723554
vt 0.090225 0.786842
vt 0.026603 0.786842
vt 0.090225 0.851464
vt 0.026603 0.851464
vt 0.754981 0.876454
vt 0.669766 0.851521
vt 0.756567 0.792076
vt 0.626178 0.780181
vt 0.886958 0.785406
vt 0.840673 0.854690
vt 0.859742 0.886372
vt 0.754201 0.921297
vt 0.922216 0.798015
vt 0.649448 0.882519
vt 0.590460 0.791352
vt 0.877894 0.938550
vt 0.753197 0.987749
vt 0.960616 0.826499
vt 0.629394 0.934040
vt 0.550567 0.818208
vn -0.703075 0.703076 0.106629
vn -0.703075 0.703076 0.106629
vn -0.703075 0.703076 0.106629
vn -0.508685 -0.508685 0.694607
vn -0.508685 -0.508685 0.694607
vn -0.508685 -0.508685 0.694607
vn 0.508681 -0.508686 0.694609
vn 0.508681 -0.508686 0.694609
vn 0.508681 -0.508686 0.694609
vn 0.703077 0.703074 0.106629
vn 0.703077 0.703074 0.106629
vn 0.703077 0.703074 0.106629
vn 0.648712 0.648713 0.397925
vn 0.648712 0.648713 0.397925
vn 0.648712 0.648713 0.397925
vn 0.648712 0.648713 0.397925
vn 0.688822 -0.688825 0.225930
vn 0.688822 -0.688825 0.225930
vn 0.688822 -0.688825 0.225930
vn 0.688822 -0.688825 0.225930
vn -0.688825 -0.688822 0.225930
vn -0.688825 -0.688822 0.225929
vn -0.688825 -0.688822 0.225929
vn -0.688825 -0.688822 0.225929
vn -0.648713 0.648712 0.397925
vn -0.648713 0.648712 0.397925
vn -0.648713 0.648712 0.397925
vn -0.648713 0.648712 0.397925
vn 0.583851 0.583852 0.564124
vn 0.583851 0.583852 0.564124
vn 0.583851 0.583852 0.564124
vn 0.583851 0.583851 0.564124
vn 0.706946 -0.706945 -0.021353
vn 0.706946 -0.706945 -0.021353
vn 0.706946 -0.706945 -0.021353
vn 0.706946 -0.706945 -0.021353
vn -0.706944 -0.706947 -0.021353
vn -0.706944 -0.706947 -0.021353
vn -0.706944 -0.706947 -0.021353
vn -0.706944 -0.706947 -0.021353
vn -0.583849 0.583852 0.564125
vn -0.583849 0.583852 0.564125
vn -0.583849 0.583852 0.564125
vn -0.583849 0.583852 0.564125
vn 0.000000 0.000000 1.000000
vn 0.000000 0.000000 1.000000
vn 0.000000 0.000000 1.000000
vn 0.000000 0.000000 1.000000
vn 0.000000 0.000000 1.000000
vn 0.000000 0.000000 1.000000
vn 0.000000 0.000000 1.000000
vn 0.000000 0.000000 1.000000
vn 0.000000 0.000000 1.000000
vn 0.000000 1.000000 0.000000
vn 0.000000 1.000000 0.000000
vn 0.000000 1.000000 0.000000
vn 0.000000 1.000000 0.000000
vn 0.000000 1.000000 0.000000
vn 0.000000 1.000000 0.000000
vn 0.000000 1.000000 0.000000
vn 0.000000 1.000000 0.000000
vn 0.000000 1.000000 0.000000
vn 0.000000 0.000000 -1.000000
vn 0.000000 0.000000 -1.000000
vn 0.000000 0.000000 -1.000000
vn 0.000000 0.000000 -1.000000
vn 0.000000 0.000000 -1.000000
vn 0.000000 0.000000 -1.000000
vn 0.000000 0.000000 -1.000000
vn 0.000000 0.000000 -1.000000
vn 0.000000 0.000000 -1.000000
vn 0.000000 -1.000000 0.000000
vn 0.000000 -1.000000 0.000000
vn 0.000000 -1.000000 0.000000
vn 0.000000 -1.000000 0.000000
vn 0.000000 -1.000000 0.000000
vn 0.000000 -1.000000 0.000000
vn 0.000000 -1.000000 0.000000
vn 0.000000 -1.000000 0.000000
vn 0.000000 -1.000000 0.000000
vn 1.000000 0.000000 0.000000
vn 1.000000 0.000000 0.000000
vn 1.000000 0.000000 0.000000
vn 1.000000 0.000000 0.000000
vn 1.000000 0.000000 0.000000
vn 1.000000 0.000000 0.000000
vn 1.000000 0.000000 0.000000
vn 1.000000 0.000000 0.000000
vn 1.000000 0.000000 0.000000
vn -1.000000 0.000000 0.000000
vn -1.000000 0.000000 0.000000
vn -1.000000 0.000000 0.000000
vn -1.000000 0.000000 0.000000
vn -1.000000 0.000000 0.000000
vn -1.000000 0.000000 0.000000
vn -1.000000 0.000000 0.000000
vn -1.000000 0.000000 0.000000
vn -1.000000 0.000000 0.000000
vn 0.703075 0.703076 -0.106629
vn 0.703075 0.703076 -0.106629
vn 0.703075 0.703076 -0.106629
vn 0.508684 -0.508685 -0.694608
vn 0.508684 -0.508685 -0.694608
vn 0.508684 -0.508685 -0.694608
vn -0.508684 -0.508685 -0.694608
vn -0.508684 -0.508685 -0.694608
vn -0.508684 -0.508685 -0.694608
vn -0.703074 0.703077 -0.106629
vn -0.703074 0.703077 -0.106629
vn -0.703074 0.703077 -0.106629
vn -0.648712 0.648713 -0.397925
vn -0.648712 0.648713 -0.397925
vn -0.648712 0.648713 -0.397925
vn -0.648712 0.648713 -0.397925
vn -0.688824 -0.688823 -0.225930
vn -0.688824 -0.688823 -0.225930
vn -0.688824 -0.688823 -0.225930
vn -0.688824 -0.688823 -0.225930
vn 0.688824 -0.688824 -0.225930
vn 0.688824 -0.688824 -0.225930
vn 0.688824 -0.688824 -0.225930
vn 0.688824 -0.688824 -0.225930
vn 0.648712 0.648712 -0.397925
vn 0.648712 0.648712 -0.397925
vn 0.648712 0.648712 -0.397925
vn 0.648712 0.648712 -0.397925
vn -0.583852 0.583851 -0.564123
vn -0.583852 0.583851 -0.564123
vn -0.583852 0.583851 -0.564123
vn -0.583852 0.583851 -0.564123
vn -0.706946 -0.706946 0.021353
vn -0.706946 -0.706946 0.021353
vn -0.706946 -0.706946 0.021353
vn -0.706946 -0.706946 0.021353
vn 0.706946 -0.706946 0.021353
vn 0.706946 -0.706946 0.021353
vn 0.706946 -0.706946 0.021353
vn 0.706946 -0.706946 0.021353
vn 0.583850 0.583852 -0.564124
vn 0.583850 0.583852 -0.564124
vn 0.583850 0.583852 -0.564124
vn 0.583850 0.583852 -0.564124
s off
g pasted__polySurface2
usemtl pasted__lambert7SG1
f 1/1/1 2/2/2 5/3/3
f 2/2/4 3/4/5 5/3/6
f 3/5/7 4/6/8 5/3/9
f 4/6/10 1/1/11 5/3/12
f 1/1/13 4/6/14 6/7/15 7/8/16
f 4/6/17 3/5/18 8/9/19 6/7/20
f 3/4/21 2/2/22 9/10/23 8/11/24
f 2/2/25 1/1/26 7/8/27 9/10/28
f 7/8/29 6/7/30 10/12/31 11/13/32
f 6/7/33 8/9/34 12/14/35 10/12/36
f 8/11/37 9/10/38 13/15/39 12/16/40
f 9/10/41 7/8/42 11/13/43 13/15/44
s 1
usemtl lambert7SG
f 14/17/45 15/18/46 18/19/47 17/20/48
f 15/18/46 16/21/49 19/22/50 18/19/47
f 17/20/48 18/19/47 21/23/51 20/24/52
f 18/19/47 19/22/50 22/25/53 21/23/51
s 2
f 20/26/54 21/27/55 24/28/56 23/29/57
f 21/27/55 22/25/58 25/30/59 24/28/56
f 23/29/57 24/28/56 27/31/60 26/32/61
f 24/28/56 25/30/59 28/33/62 27/31/60
s 3
f 26/34/63 27/35/64 30/36/65 29/37/66
f 27/35/64 28/33/67 31/38/68 30/36/65
f 29/37/66 30/36/65 33/39/69 32/40/70
f 30/36/65 31/38/68 34/41/71 33/39/69
s 4
f 32/42/72 33/43/73 36/44/74 35/45/75
f 33/43/73 34/41/76 37/46/77 36/44/74
f 35/45/75 36/44/74 15/47/78 14/48/79
f 36/44/74 37/46/77 16/21/80 15/47/78
s 5
f 37/46/81 34/41/82 31/38/83 38/49/84
f 16/21/85 37/46/81 38/49/84 19/22/86
f 38/49/84 31/38/83 28/33/87 25/30/88
f 19/22/86 38/49/84 25/30/88 22/25/89
s 6
f 32/50/90 35/51/91 39/52/92 29/53/93
f 35/51/91 14/17/94 17/20/95 39/52/92
f 29/53/93 39/52/92 23/54/96 26/55/97
f 39/52/92 17/20/95 20/24/98 23/54/96
s off
f 40/56/99 41/57/100 44/58/101
f 41/57/102 42/59/103 44/58/104
f 42/60/105 43/61/106 44/58/107
f 43/61/108 40/56/109 44/58/110
f 40/56/111 43/61/112 45/62/113 46/63/114
f 43/61/115 42/60/116 47/64/117 45/62/118
f 42/59/119 41/57/120 48/65/121 47/66/122
f 41/57/123 40/56/124 46/63/125 48/65/126
f 46/63/127 45/62/128 49/67/129 50/68/130
f 45/62/131 47/64/132 51/69/133 49/67/134
f 47/66/135 48/65/136 52/70/137 51/71/138
f 48/65/139 46/63/140 50/68/141 52/70/142
