# This file uses centimeters as units for non-parametric coordinates.

mtllib Female_Sphere_Head_Obj.mtl
g default
v -0.383319 0.021433 5.493177
v -0.429624 0.021433 5.446872
v -0.492878 0.021433 5.429923
v -0.556132 0.021433 5.446872
v -0.602438 0.021433 5.493177
v -0.619387 0.021433 5.556431
v -0.602438 0.021433 5.619686
v -0.556132 0.021433 5.665991
v -0.492878 0.021433 5.682940
v -0.429624 0.021433 5.665991
v -0.383319 0.021433 5.619686
v -0.366370 0.021433 5.556431
v -0.281226 0.070264 5.434234
v -0.370681 0.070264 5.344779
v -0.492878 0.070264 5.312035
v -0.615076 0.070264 5.344779
v -0.704531 0.070264 5.434234
v -0.737274 0.070264 5.556431
v -0.704531 0.070264 5.678629
v -0.615076 0.070264 5.768084
v -0.492878 0.070264 5.800827
v -0.370681 0.070264 5.768084
v -0.281226 0.070264 5.678629
v -0.248483 0.070264 5.556431
v -0.193556 0.147942 5.383617
v -0.320065 0.147942 5.257109
v -0.492878 0.147942 5.210804
v -0.665692 0.147942 5.257109
v -0.792200 0.147942 5.383617
v -0.838506 0.147942 5.556431
v -0.792200 0.147942 5.729245
v -0.665692 0.147942 5.855754
v -0.492878 0.147942 5.902059
v -0.320065 0.147942 5.855754
v -0.193556 0.147942 5.729245
v -0.147251 0.147942 5.556431
v -0.126285 0.249174 5.344779
v -0.281226 0.249174 5.189838
v -0.492878 0.249174 5.133126
v -0.704531 0.249174 5.189838
v -0.859472 0.249174 5.344779
v -0.916184 0.249174 5.556431
v -0.859472 0.249174 5.768084
v -0.704531 0.249174 5.923025
v -0.492878 0.249174 5.979737
v -0.281226 0.249174 5.923025
v -0.126285 0.249174 5.768084
v -0.069573 0.249174 5.556431
v -0.083997 0.367061 5.320364
v -0.256810 0.367061 5.147550
v -0.492878 0.367061 5.084295
v -0.728946 0.367061 5.147550
v -0.901760 0.367061 5.320364
v -0.965014 0.367061 5.556431
v -0.901760 0.367061 5.792499
v -0.728946 0.367061 5.965313
v -0.492878 0.367061 6.028567
v -0.256810 0.367061 5.965313
v -0.083997 0.367061 5.792499
v -0.020742 0.367061 5.556431
v -0.069573 0.493569 5.312035
v -0.248483 0.493569 5.133126
v -0.492878 0.493569 5.067640
v -0.737274 0.493569 5.133126
v -0.916184 0.493569 5.312035
v -0.981669 0.493569 5.556431
v -0.916184 0.493569 5.800827
v -0.737274 0.493569 5.979737
v -0.492878 0.493569 6.045222
v -0.248483 0.493569 5.979737
v -0.069573 0.493569 5.800827
v -0.004087 0.493569 5.556431
v -0.083997 0.620078 5.320364
v -0.256810 0.620078 5.147550
v -0.492878 0.620078 5.084295
v -0.728946 0.620078 5.147550
v -0.901760 0.620078 5.320364
v -0.965014 0.620078 5.556431
v -0.901760 0.620078 5.792499
v -0.728946 0.620078 5.965313
v -0.492878 0.620078 6.028567
v -0.256810 0.620078 5.965313
v -0.083997 0.620078 5.792499
v -0.020742 0.620078 5.556431
v -0.126285 0.737965 5.344779
v -0.281226 0.737965 5.189838
v -0.492878 0.737965 5.133126
v -0.704531 0.737965 5.189838
v -0.859472 0.737965 5.344779
v -0.916184 0.737965 5.556431
v -0.859472 0.737965 5.768084
v -0.704531 0.737965 5.923025
v -0.492878 0.737965 5.979737
v -0.281226 0.737965 5.923025
v -0.126285 0.737965 5.768084
v -0.069573 0.737965 5.556431
v -0.193556 0.839197 5.383617
v -0.320065 0.839197 5.257109
v -0.492878 0.839197 5.210804
v -0.665692 0.839197 5.257109
v -0.792200 0.839197 5.383617
v -0.838506 0.839197 5.556431
v -0.792200 0.839197 5.729245
v -0.665692 0.839197 5.855754
v -0.492878 0.839197 5.902059
v -0.320065 0.839197 5.855754
v -0.193556 0.839197 5.729245
v -0.147251 0.839197 5.556431
v -0.281226 0.916875 5.434234
v -0.370681 0.916875 5.344779
v -0.492878 0.916875 5.312035
v -0.615076 0.916875 5.344779
v -0.704531 0.916875 5.434234
v -0.737274 0.916875 5.556431
v -0.704531 0.916875 5.678629
v -0.615076 0.916875 5.768084
v -0.492878 0.916875 5.800827
v -0.370681 0.916875 5.768084
v -0.281226 0.916875 5.678629
v -0.248483 0.916875 5.556431
v -0.383319 0.965705 5.493177
v -0.429624 0.965705 5.446872
v -0.492878 0.965705 5.429923
v -0.556132 0.965705 5.446872
v -0.602438 0.965705 5.493177
v -0.619387 0.965705 5.556431
v -0.602438 0.965705 5.619686
v -0.556132 0.965705 5.665991
v -0.492878 0.965705 5.682940
v -0.429624 0.965705 5.665991
v -0.383319 0.965705 5.619686
v -0.366370 0.965705 5.556431
vt 0.397046 0.026959
vt 0.403934 0.015048
vt 0.446710 0.050654
vt 0.420161 0.058002
vt 0.403340 0.001197
vt 0.066077 0.037362
vt 0.115417 0.020084
vt 0.082864 0.049154
vt 0.121626 0.029431
vt 0.103631 0.054516
vt 0.125484 0.036035
vt 0.125266 0.055717
vt 0.143467 0.035134
vt 0.146938 0.053687
vt 0.153194 0.030511
vt 0.167800 0.047497
vt 0.160069 0.022117
vt 0.319021 0.035178
vt 0.357197 0.031352
vt 0.339260 0.051260
vt 0.370140 0.036645
vt 0.365401 0.058523
vt 0.393620 0.035360
vt 0.392784 0.060367
vt 0.460616 0.074754
vt 0.426158 0.082574
vt 0.046515 0.054136
vt 0.072063 0.067693
vt 0.098966 0.073665
vt 0.125476 0.075125
vt 0.152132 0.072954
vt 0.179323 0.066338
vt 0.293107 0.056273
vt 0.324897 0.074521
vt 0.358871 0.082723
vt 0.392434 0.084958
vt 0.470006 0.099473
vt 0.430012 0.105710
vt 0.031457 0.075196
vt 0.064620 0.086870
vt 0.095973 0.091778
vt 0.125713 0.092991
vt 0.155543 0.091262
vt 0.187201 0.085997
vt 0.272976 0.083243
vt 0.314863 0.099017
vt 0.354589 0.105723
vt 0.392249 0.107560
vt 0.475361 0.124401
vt 0.432117 0.127714
vt 0.021932 0.099323
vt 0.060326 0.106319
vt 0.094311 0.109099
vt 0.125838 0.109759
vt 0.157424 0.108786
vt 0.191765 0.105968
vt 0.260065 0.114438
vt 0.308898 0.123939
vt 0.352208 0.127794
vt 0.392191 0.128762
vt 0.476997 0.149271
vt 0.432794 0.149107
vt 0.018438 0.125104
vt 0.058878 0.125891
vt 0.093787 0.126024
vt 0.125849 0.125900
vt 0.158031 0.125843
vt 0.193224 0.125993
vt 0.255281 0.148076
vt 0.306869 0.149143
vt 0.351436 0.149332
vt 0.392188 0.149257
vt 0.475167 0.174057
vt 0.432128 0.170537
vt 0.021210 0.151137
vt 0.060171 0.145534
vt 0.094321 0.142912
vt 0.125848 0.142087
vt 0.157423 0.142852
vt 0.191621 0.145896
vt 0.259047 0.182051
vt 0.308714 0.174494
vt 0.352204 0.170933
vt 0.392206 0.169703
vt 0.469729 0.198683
vt 0.430025 0.192470
vt 0.030243 0.176001
vt 0.064404 0.165219
vt 0.095983 0.160292
vt 0.125805 0.158838
vt 0.155544 0.160281
vt 0.186913 0.165577
vt 0.271252 0.214251
vt 0.314492 0.199786
vt 0.354589 0.193122
vt 0.392367 0.190931
vt 0.460309 0.222962
vt 0.426237 0.215401
vt 0.045256 0.198185
vt 0.071825 0.184739
vt 0.099029 0.178565
vt 0.125659 0.176687
vt 0.152165 0.178452
vt 0.178993 0.184926
vt 0.291352 0.242597
vt 0.324472 0.224683
vt 0.358913 0.216305
vt 0.392667 0.213545
vt 0.446640 0.246439
vt 0.420333 0.239646
vt 0.065398 0.216072
vt 0.082808 0.203765
vt 0.103770 0.197967
vt 0.125387 0.196107
vt 0.147006 0.197560
vt 0.167645 0.203293
vt 0.318009 0.265128
vt 0.339062 0.248548
vt 0.365485 0.240701
vt 0.392936 0.238127
vt 0.405385 0.283305
vt 0.397523 0.271456
vt 0.117023 0.242777
vt 0.116549 0.231837
vt 0.121988 0.222450
vt 0.124723 0.215848
vt 0.143247 0.214825
vt 0.153463 0.219011
vt 0.348830 0.280701
vt 0.357535 0.270066
vt 0.369861 0.264224
vt 0.392652 0.263049
vt 0.348068 0.021698
vt 0.087395 0.026067
vt 0.160663 0.226637
vt 0.440921 0.275678
vt 0.183618 0.215993
vt 0.467909 0.261375
vt 0.204089 0.199331
vt 0.492672 0.240134
vt 0.219989 0.178025
vt 0.511732 0.213465
vt 0.230181 0.153388
vt 0.523789 0.182916
vt 0.233955 0.126829
vt 0.528214 0.150274
vt 0.230980 0.100004
vt 0.524707 0.117310
vt 0.221343 0.074580
vt 0.513272 0.085824
vt 0.205470 0.052195
vt 0.494270 0.057728
vt 0.184416 0.034401
vt 0.468774 0.035067
vt 0.384405 0.264997
vt 0.411781 0.263380
vt 0.374020 0.265380
vt 0.139720 0.216083
vt 0.131800 0.216469
vt 0.109981 0.217588
vt 0.096980 0.221441
vt 0.088225 0.228771
vt 0.405603 0.297033
vt 0.429087 0.267199
vt 0.384630 0.034547
vt 0.412297 0.033151
vt 0.374618 0.035062
vt 0.140190 0.034203
vt 0.131979 0.034522
vt 0.110389 0.035776
vt 0.096734 0.032767
vt 0.439869 0.018975
vt 0.115252 0.009250
vt 0.428779 0.028264
vn 0.232975 -0.963135 -0.134508
vn 0.109284 -0.975822 -0.189285
vn 0.270245 -0.841351 -0.468076
vn 0.468076 -0.841352 -0.270244
vn 0.000000 -0.978949 -0.204105
vn 0.000000 -0.841351 -0.540489
vn -0.109284 -0.975822 -0.189285
vn -0.270245 -0.841351 -0.468077
vn -0.232975 -0.963136 -0.134508
vn -0.468077 -0.841352 -0.270244
vn -0.360763 -0.932657 0.000000
vn -0.540488 -0.841352 0.000000
vn -0.232975 -0.963136 0.134508
vn -0.468077 -0.841352 0.270244
vn -0.109283 -0.975822 0.189285
vn -0.270244 -0.841352 0.468077
vn 0.000000 -0.978949 0.204106
vn 0.000000 -0.841351 0.540488
vn 0.109284 -0.975822 0.189286
vn 0.270244 -0.841352 0.468077
vn 0.232975 -0.963135 0.134508
vn 0.468076 -0.841352 0.270244
vn 0.360763 -0.932657 0.000000
vn 0.540488 -0.841352 0.000000
vn 0.364806 -0.683862 -0.631862
vn 0.631862 -0.683862 -0.364806
vn 0.000000 -0.683862 -0.729612
vn -0.364806 -0.683862 -0.631862
vn -0.631862 -0.683862 -0.364806
vn -0.729611 -0.683862 -0.000000
vn -0.631862 -0.683862 0.364806
vn -0.364805 -0.683862 0.631862
vn 0.000000 -0.683862 0.729611
vn 0.364806 -0.683862 0.631862
vn 0.631862 -0.683862 0.364806
vn 0.729611 -0.683862 0.000000
vn 0.438134 -0.481822 -0.758871
vn 0.758871 -0.481822 -0.438135
vn 0.000000 -0.481823 -0.876269
vn -0.438135 -0.481822 -0.758871
vn -0.758871 -0.481822 -0.438135
vn -0.876269 -0.481822 -0.000000
vn -0.758871 -0.481822 0.438135
vn -0.438135 -0.481822 0.758871
vn -0.000000 -0.481823 0.876269
vn 0.438134 -0.481822 0.758871
vn 0.758871 -0.481822 0.438135
vn 0.876269 -0.481823 0.000000
vn 0.484273 -0.248838 -0.838785
vn 0.838785 -0.248838 -0.484272
vn 0.000000 -0.248837 -0.968545
vn -0.484272 -0.248838 -0.838785
vn -0.838785 -0.248838 -0.484272
vn -0.968545 -0.248837 0.000000
vn -0.838785 -0.248837 0.484273
vn -0.484273 -0.248837 0.838785
vn 0.000000 -0.248837 0.968545
vn 0.484273 -0.248837 0.838785
vn 0.838785 -0.248837 0.484272
vn 0.968545 -0.248837 0.000000
vn 0.499999 0.000000 -0.866026
vn 0.866025 -0.000000 -0.500001
vn 0.000000 -0.000000 -1.000000
vn -0.499999 -0.000000 -0.866026
vn -0.866025 -0.000000 -0.500001
vn -1.000000 0.000000 -0.000000
vn -0.866026 -0.000000 0.500000
vn -0.500000 -0.000000 0.866026
vn 0.000000 -0.000000 1.000000
vn 0.500000 0.000000 0.866026
vn 0.866025 0.000000 0.500000
vn 1.000000 0.000000 -0.000000
vn 0.484273 0.248838 -0.838785
vn 0.838785 0.248838 -0.484272
vn -0.000000 0.248837 -0.968545
vn -0.484272 0.248838 -0.838785
vn -0.838785 0.248838 -0.484272
vn -0.968545 0.248837 0.000000
vn -0.838785 0.248837 0.484273
vn -0.484273 0.248837 0.838785
vn -0.000000 0.248837 0.968545
vn 0.484273 0.248837 0.838785
vn 0.838785 0.248837 0.484273
vn 0.968545 0.248837 -0.000000
vn 0.438134 0.481822 -0.758871
vn 0.758871 0.481822 -0.438135
vn -0.000000 0.481823 -0.876269
vn -0.438135 0.481822 -0.758871
vn -0.758871 0.481822 -0.438135
vn -0.876269 0.481822 0.000000
vn -0.758871 0.481822 0.438135
vn -0.438135 0.481822 0.758871
vn -0.000000 0.481823 0.876269
vn 0.438134 0.481822 0.758871
vn 0.758871 0.481822 0.438135
vn 0.876269 0.481822 -0.000000
vn 0.364806 0.683862 -0.631862
vn 0.631862 0.683862 -0.364806
vn 0.000000 0.683862 -0.729612
vn -0.364806 0.683862 -0.631862
vn -0.631861 0.683863 -0.364806
vn -0.729611 0.683863 0.000000
vn -0.631861 0.683863 0.364806
vn -0.364805 0.683862 0.631862
vn 0.000000 0.683862 0.729611
vn 0.364805 0.683862 0.631862
vn 0.631862 0.683862 0.364806
vn 0.729611 0.683862 -0.000000
vn 0.270245 0.841351 -0.468077
vn 0.468076 0.841352 -0.270244
vn 0.000000 0.841351 -0.540489
vn -0.270245 0.841351 -0.468077
vn -0.468077 0.841352 -0.270244
vn -0.540488 0.841352 0.000000
vn -0.468077 0.841352 0.270244
vn -0.270244 0.841352 0.468077
vn 0.000000 0.841352 0.540488
vn 0.270244 0.841352 0.468077
vn 0.468076 0.841352 0.270244
vn 0.540488 0.841352 -0.000000
vn 0.109284 0.975822 -0.189285
vn 0.232975 0.963136 -0.134508
vn 0.000000 0.978949 -0.204105
vn -0.109284 0.975822 -0.189285
vn -0.232975 0.963136 -0.134508
vn -0.360763 0.932658 0.000000
vn -0.232975 0.963136 0.134508
vn -0.109283 0.975822 0.189285
vn 0.000000 0.978949 0.204105
vn 0.109283 0.975822 0.189285
vn 0.232975 0.963136 0.134508
vn 0.360763 0.932658 0.000000
s 1
g pasted__pSphere1 group2
usemtl lambert7SG
f 1/166/1 2/174/2 14/3/3 13/4/4
f 2/174/2 3/172/5 15/154/6 14/3/3
f 3/134/5 4/171/7 16/8/8 15/6/6
f 4/171/7 5/170/9 17/10/10 16/8/8
f 5/170/9 6/11/11 18/12/12 17/10/10
f 6/11/11 7/168/13 19/14/14 18/12/12
f 7/168/13 8/15/15 20/16/16 19/14/14
f 8/15/15 9/17/17 21/153/18 20/16/16
f 9/133/17 10/19/19 22/20/20 21/18/18
f 10/19/19 11/167/21 23/22/22 22/20/20
f 11/167/21 12/23/23 24/24/24 23/22/22
f 12/23/23 1/166/1 13/4/4 24/24/24
f 13/4/4 14/3/3 26/25/25 25/26/26
f 14/3/3 15/154/6 27/152/27 26/25/25
f 15/6/6 16/8/8 28/28/28 27/27/27
f 16/8/8 17/10/10 29/29/29 28/28/28
f 17/10/10 18/12/12 30/30/30 29/29/29
f 18/12/12 19/14/14 31/31/31 30/30/30
f 19/14/14 20/16/16 32/32/32 31/31/31
f 20/16/16 21/153/18 33/151/33 32/32/32
f 21/18/18 22/20/20 34/34/34 33/33/33
f 22/20/20 23/22/22 35/35/35 34/34/34
f 23/22/22 24/24/24 36/36/36 35/35/35
f 24/24/24 13/4/4 25/26/26 36/36/36
f 25/26/26 26/25/25 38/37/37 37/38/38
f 26/25/25 27/152/27 39/150/39 38/37/37
f 27/27/27 28/28/28 40/40/40 39/39/39
f 28/28/28 29/29/29 41/41/41 40/40/40
f 29/29/29 30/30/30 42/42/42 41/41/41
f 30/30/30 31/31/31 43/43/43 42/42/42
f 31/31/31 32/32/32 44/44/44 43/43/43
f 32/32/32 33/151/33 45/149/45 44/44/44
f 33/33/33 34/34/34 46/46/46 45/45/45
f 34/34/34 35/35/35 47/47/47 46/46/46
f 35/35/35 36/36/36 48/48/48 47/47/47
f 36/36/36 25/26/26 37/38/38 48/48/48
f 37/38/38 38/37/37 50/49/49 49/50/50
f 38/37/37 39/150/39 51/148/51 50/49/49
f 39/39/39 40/40/40 52/52/52 51/51/51
f 40/40/40 41/41/41 53/53/53 52/52/52
f 41/41/41 42/42/42 54/54/54 53/53/53
f 42/42/42 43/43/43 55/55/55 54/54/54
f 43/43/43 44/44/44 56/56/56 55/55/55
f 44/44/44 45/149/45 57/147/57 56/56/56
f 45/45/45 46/46/46 58/58/58 57/57/57
f 46/46/46 47/47/47 59/59/59 58/58/58
f 47/47/47 48/48/48 60/60/60 59/59/59
f 48/48/48 37/38/38 49/50/50 60/60/60
f 49/50/50 50/49/49 62/61/61 61/62/62
f 50/49/49 51/148/51 63/146/63 62/61/61
f 51/51/51 52/52/52 64/64/64 63/63/63
f 52/52/52 53/53/53 65/65/65 64/64/64
f 53/53/53 54/54/54 66/66/66 65/65/65
f 54/54/54 55/55/55 67/67/67 66/66/66
f 55/55/55 56/56/56 68/68/68 67/67/67
f 56/56/56 57/147/57 69/145/69 68/68/68
f 57/57/57 58/58/58 70/70/70 69/69/69
f 58/58/58 59/59/59 71/71/71 70/70/70
f 59/59/59 60/60/60 72/72/72 71/71/71
f 60/60/60 49/50/50 61/62/62 72/72/72
f 61/62/62 62/61/61 74/73/73 73/74/74
f 62/61/61 63/146/63 75/144/75 74/73/73
f 63/63/63 64/64/64 76/76/76 75/75/75
f 64/64/64 65/65/65 77/77/77 76/76/76
f 65/65/65 66/66/66 78/78/78 77/77/77
f 66/66/66 67/67/67 79/79/79 78/78/78
f 67/67/67 68/68/68 80/80/80 79/79/79
f 68/68/68 69/145/69 81/143/81 80/80/80
f 69/69/69 70/70/70 82/82/82 81/81/81
f 70/70/70 71/71/71 83/83/83 82/82/82
f 71/71/71 72/72/72 84/84/84 83/83/83
f 72/72/72 61/62/62 73/74/74 84/84/84
f 73/74/74 74/73/73 86/85/85 85/86/86
f 74/73/73 75/144/75 87/142/87 86/85/85
f 75/75/75 76/76/76 88/88/88 87/87/87
f 76/76/76 77/77/77 89/89/89 88/88/88
f 77/77/77 78/78/78 90/90/90 89/89/89
f 78/78/78 79/79/79 91/91/91 90/90/90
f 79/79/79 80/80/80 92/92/92 91/91/91
f 80/80/80 81/143/81 93/141/93 92/92/92
f 81/81/81 82/82/82 94/94/94 93/93/93
f 82/82/82 83/83/83 95/95/95 94/94/94
f 83/83/83 84/84/84 96/96/96 95/95/95
f 84/84/84 73/74/74 85/86/86 96/96/96
f 85/86/86 86/85/85 98/97/97 97/98/98
f 86/85/85 87/142/87 99/140/99 98/97/97
f 87/87/87 88/88/88 100/100/100 99/99/99
f 88/88/88 89/89/89 101/101/101 100/100/100
f 89/89/89 90/90/90 102/102/102 101/101/101
f 90/90/90 91/91/91 103/103/103 102/102/102
f 91/91/91 92/92/92 104/104/104 103/103/103
f 92/92/92 93/141/93 105/139/105 104/104/104
f 93/93/93 94/94/94 106/106/106 105/105/105
f 94/94/94 95/95/95 107/107/107 106/106/106
f 95/95/95 96/96/96 108/108/108 107/107/107
f 96/96/96 85/86/86 97/98/98 108/108/108
f 97/98/98 98/97/97 110/109/109 109/110/110
f 98/97/97 99/140/99 111/138/111 110/109/109
f 99/99/99 100/100/100 112/112/112 111/111/111
f 100/100/100 101/101/101 113/113/113 112/112/112
f 101/101/101 102/102/102 114/114/114 113/113/113
f 102/102/102 103/103/103 115/115/115 114/114/114
f 103/103/103 104/104/104 116/116/116 115/115/115
f 104/104/104 105/139/105 117/137/117 116/116/116
f 105/105/105 106/106/106 118/118/118 117/117/117
f 106/106/106 107/107/107 119/119/119 118/118/118
f 107/107/107 108/108/108 120/120/120 119/119/119
f 108/108/108 97/98/98 109/110/110 120/120/120
f 109/110/110 110/109/109 122/164/121 121/156/122
f 110/109/109 111/138/111 123/136/123 122/164/121
f 111/111/111 112/112/112 124/161/124 123/162/123
f 112/112/112 113/113/113 125/160/125 124/161/124
f 113/113/113 114/114/114 126/126/126 125/160/125
f 114/114/114 115/115/115 127/158/127 126/126/126
f 115/115/115 116/116/116 128/128/128 127/158/127
f 116/116/116 117/137/117 129/135/129 128/128/128
f 117/117/117 118/118/118 130/130/130 129/129/129
f 118/118/118 119/119/119 131/157/131 130/130/130
f 119/119/119 120/120/120 132/132/132 131/157/131
f 120/120/120 109/110/110 121/156/122 132/132/132
f 12/165/23 11/21/21 1/1/1
f 127/127/127 125/125/125 126/159/126
f 129/135/129 123/123/123 124/124/124 128/128/128
f 128/128/128 124/124/124 125/125/125 127/127/127
f 130/130/130 122/121/121 123/163/123 129/129/129
f 131/131/131 121/122/122 122/121/121 130/130/130
f 131/131/131 132/155/132 121/122/122
f 5/9/9 7/13/13 6/169/11
f 4/7/7 8/15/15 7/13/13 5/9/9
f 3/173/5 9/17/17 8/15/15 4/7/7
f 2/2/2 10/19/19 9/133/17 3/5/5
f 1/1/1 11/21/21 10/19/19 2/2/2
