# This file uses centimeters as units for non-parametric coordinates.

mtllib Female_Pyramid_Head_Obj.mtl
g default
v -0.739455 1.086026 7.486263
v -0.706009 1.146687 7.457571
v -0.672564 1.207349 7.486263
v -0.658710 1.232475 7.555533
v -0.672564 1.207349 7.624804
v -0.706009 1.146687 7.653497
v -0.739455 1.086026 7.624804
v -0.753309 1.060899 7.555533
v -0.513622 1.006467 7.555533
v -0.851051 1.055672 7.555533
v -0.852070 1.098843 7.451280
v -0.852070 1.098843 7.659787
v -0.854532 1.203067 7.702971
v -0.856994 1.307291 7.659787
v -0.858013 1.350463 7.555533
v -0.856994 1.307291 7.451280
v -0.854532 1.203067 7.408098
v -0.905084 1.042753 7.555533
v -0.932259 1.066001 7.469195
v -0.932259 1.066001 7.641872
v -0.997865 1.122127 7.677635
v -1.063472 1.178254 7.641872
v -1.090647 1.201502 7.555533
v -1.063472 1.178254 7.469195
v -0.997865 1.122127 7.433433
v -0.980766 1.000405 7.555533
v -1.007613 1.002787 7.490465
v -1.007613 1.002787 7.620602
v -1.072426 1.008536 7.647554
v -1.137240 1.014286 7.620602
v -1.164086 1.016667 7.555533
v -1.137240 1.014286 7.490465
v -1.072426 1.008536 7.463513
v -0.999529 0.871337 7.555533
v -1.014736 0.872686 7.518676
v -1.014736 0.872686 7.592393
v -1.051451 0.875942 7.607660
v -1.088166 0.879199 7.592393
v -1.103374 0.880548 7.555533
v -1.088166 0.879199 7.518676
v -1.051451 0.875942 7.503407
v -1.034980 0.806778 7.555533
v -1.045948 0.813658 7.524278
v -1.045948 0.813658 7.586792
v -1.072426 0.830269 7.599738
v -1.098905 0.846880 7.586792
v -1.109872 0.853760 7.555533
v -1.098905 0.846880 7.524278
v -1.072426 0.830269 7.511329
v -1.091363 0.772123 7.555533
v -1.095974 0.780371 7.532722
v -1.095974 0.780371 7.578346
v -1.107105 0.800283 7.587795
v -1.118236 0.820195 7.578346
v -1.122847 0.828443 7.555533
v -1.118236 0.820195 7.532722
v -1.107105 0.800283 7.523273
v -1.166400 0.775544 7.555533
v -1.162888 0.782789 7.536095
v -1.162888 0.782789 7.574974
v -1.154409 0.800283 7.583025
v -1.145930 0.817776 7.574974
v -1.142418 0.825022 7.555533
v -1.145930 0.817776 7.536095
v -1.154409 0.800283 7.528042
v -1.230891 0.862181 7.555534
v -1.016831 0.005253 7.039733
v -1.016831 0.005253 8.061765
v 0.005200 0.005253 8.061765
v 0.005200 0.005253 7.039733
v -0.505816 1.006062 7.550748
vt 0.595971 0.293434
vt 0.620156 0.289517
vt 0.664279 0.376593
vt 0.642703 0.288329
vt 0.663538 0.287972
vt 0.684375 0.287979
vt 0.706937 0.288790
vt 0.731182 0.292302
vt 0.753355 0.302956
vt 0.771930 0.248597
vt 0.593235 0.245985
vt 0.733127 0.244819
vt 0.702883 0.245368
vt 0.681418 0.246332
vt 0.663196 0.246831
vt 0.644967 0.246638
vt 0.623487 0.246031
vt 0.767137 0.216945
vt 0.588015 0.212006
vt 0.737784 0.210770
vt 0.708441 0.205449
vt 0.683866 0.202968
vt 0.662827 0.202449
vt 0.641799 0.203315
vt 0.617265 0.206201
vt 0.755752 0.166007
vt 0.595363 0.167722
vt 0.729722 0.166631
vt 0.704234 0.161181
vt 0.682345 0.157206
vt 0.662457 0.156513
vt 0.642583 0.157523
vt 0.620758 0.161849
vt 0.729604 0.108409
vt 0.608131 0.112975
vt 0.716123 0.112133
vt 0.699851 0.111636
vt 0.681104 0.107476
vt 0.662058 0.103839
vt 0.643073 0.107779
vt 0.624387 0.112227
vt 0.711555 0.084058
vt 0.622932 0.092290
vt 0.701022 0.091679
vt 0.688168 0.095281
vt 0.674188 0.095100
vt 0.661989 0.092420
vt 0.649821 0.095317
vt 0.635857 0.095692
vt 0.692103 0.072448
vt 0.639903 0.077291
vt 0.683899 0.076949
vt 0.675690 0.079291
vt 0.668301 0.079503
vt 0.661843 0.076933
vt 0.655583 0.079616
vt 0.648083 0.079519
vt 0.685607 0.049251
vt 0.644651 0.054404
vt 0.678762 0.054153
vt 0.673034 0.059490
vt 0.667843 0.064458
vt 0.661841 0.066749
vt 0.655760 0.064567
vt 0.650531 0.059669
vt 0.661521 0.022177
vt 0.637840 0.049624
vt 0.631610 0.072915
vt 0.612327 0.084817
vt 0.594583 0.109453
vt 0.569328 0.167523
vt 0.558772 0.218671
vt 0.554498 0.250406
vt 0.573980 0.304457
vt 0.864670 0.447859
vt 0.859007 0.604475
vt 0.702253 0.598778
vt 0.707966 0.442173
vt 0.792560 0.272872
vt 0.595060 0.713167
vt 0.774366 0.773929
vt 0.957609 0.726349
vn 0.054411 -0.704803 -0.707313
vn 0.329987 -0.038280 -0.943209
vn 0.848379 -0.529389 0.000002
vn 0.550497 0.556782 -0.622050
vn 0.628370 0.777914 -0.000000
vn 0.550503 0.556782 0.622045
vn 0.329997 -0.038279 0.943206
vn 0.054415 -0.704807 0.707309
vn -0.079791 -0.996812 0.000000
vn 0.138750 -0.990327 0.000000
vn 0.120990 -0.617311 -0.777360
vn 0.120990 -0.617318 0.777355
vn 0.032827 0.118820 0.992373
vn -0.060911 0.757049 0.650512
vn -0.094048 0.995568 -0.000000
vn -0.060915 0.757047 -0.650514
vn 0.032829 0.118816 -0.992373
vn 0.401883 -0.915691 0.000001
vn 0.227514 -0.635500 -0.737819
vn 0.227508 -0.635506 0.737816
vn -0.205044 0.009867 0.978703
vn -0.582853 0.527155 0.618377
vn -0.716798 0.697281 0.000001
vn -0.582852 0.527153 -0.618379
vn -0.205032 0.009865 -0.978706
vn 0.806090 -0.591793 0.000001
vn 0.487173 -0.450774 -0.747974
vn 0.487174 -0.450774 0.747974
vn -0.185089 -0.175543 0.966916
vn -0.773977 0.042059 0.631816
vn -0.993074 0.117489 0.000001
vn -0.773975 0.042057 -0.631818
vn -0.185084 -0.175547 -0.966916
vn 0.973085 -0.230445 0.000000
vn 0.709569 -0.238523 -0.663038
vn 0.709571 -0.238521 0.663036
vn 0.038535 -0.268609 0.962478
vn -0.655840 -0.315654 0.685738
vn -0.940140 -0.340789 -0.000001
vn -0.655840 -0.315657 -0.685737
vn 0.038542 -0.268618 -0.962475
vn 0.756522 -0.653968 0.000000
vn 0.547973 -0.536946 -0.641417
vn 0.547974 -0.536953 0.641410
vn -0.007877 -0.218209 0.975870
vn -0.644534 0.163668 0.746853
vn -0.937852 0.347036 -0.000000
vn -0.644536 0.163676 -0.746849
vn -0.007872 -0.218216 -0.975869
vn 0.282133 -0.959375 0.000001
vn 0.180407 -0.772164 -0.609275
vn 0.180406 -0.772177 0.609259
vn -0.097825 -0.241321 0.965502
vn -0.462572 0.414873 0.783523
vn -0.676308 0.736619 -0.000003
vn -0.462563 0.414876 -0.783526
vn -0.097825 -0.241330 -0.965500
vn -0.392003 -0.919964 0.000001
vn -0.339434 -0.700490 -0.627773
vn -0.339464 -0.700496 0.627750
vn -0.185694 -0.071854 0.979977
vn 0.045066 0.655315 0.754010
vn 0.187614 0.982243 -0.000001
vn 0.045075 0.655308 -0.754016
vn -0.185693 -0.071861 -0.979977
vn -0.849306 0.527901 0.000014
vn 0.000000 -1.000000 0.000000
vn 0.000000 -1.000000 0.000000
vn 0.000000 -1.000000 0.000000
vn 0.000000 -1.000000 0.000000
vn -0.890618 0.454752 0.000000
vn -0.890618 0.454752 0.000000
vn -0.890618 0.454752 0.000000
vn 0.000000 0.454752 0.890618
vn 0.000000 0.454752 0.890618
vn 0.000000 0.454752 0.890618
vn 0.890618 0.454752 0.000000
vn 0.890618 0.454752 0.000000
vn 0.890618 0.454752 0.000000
vn 0.000000 0.454752 -0.890618
vn 0.000000 0.454752 -0.890618
vn 0.000000 0.454752 -0.890618
s 1
g pCone2
usemtl lambert7SG
f 1/1/1 2/2/2 9/3/3
f 2/2/2 3/4/4 9/3/3
f 3/4/4 4/5/5 9/3/3
f 4/5/5 5/6/6 9/3/3
f 5/6/6 6/7/7 9/3/3
f 6/7/7 7/8/8 9/3/3
f 7/8/8 8/9/9 9/3/3
f 8/74/9 1/1/1 9/3/3
f 1/1/1 8/74/9 10/73/10 11/11/11
f 8/9/9 7/8/8 12/12/12 10/10/10
f 7/8/8 6/7/7 13/13/13 12/12/12
f 6/7/7 5/6/6 14/14/14 13/13/13
f 5/6/6 4/5/5 15/15/15 14/14/14
f 4/5/5 3/4/4 16/16/16 15/15/15
f 3/4/4 2/2/2 17/17/17 16/16/16
f 2/2/2 1/1/1 11/11/11 17/17/17
f 11/11/11 10/73/10 18/72/18 19/19/19
f 10/10/10 12/12/12 20/20/20 18/18/18
f 12/12/12 13/13/13 21/21/21 20/20/20
f 13/13/13 14/14/14 22/22/22 21/21/21
f 14/14/14 15/15/15 23/23/23 22/22/22
f 15/15/15 16/16/16 24/24/24 23/23/23
f 16/16/16 17/17/17 25/25/25 24/24/24
f 17/17/17 11/11/11 19/19/19 25/25/25
f 19/19/19 18/72/18 26/71/26 27/27/27
f 18/18/18 20/20/20 28/28/28 26/26/26
f 20/20/20 21/21/21 29/29/29 28/28/28
f 21/21/21 22/22/22 30/30/30 29/29/29
f 22/22/22 23/23/23 31/31/31 30/30/30
f 23/23/23 24/24/24 32/32/32 31/31/31
f 24/24/24 25/25/25 33/33/33 32/32/32
f 25/25/25 19/19/19 27/27/27 33/33/33
f 27/27/27 26/71/26 34/70/34 35/35/35
f 26/26/26 28/28/28 36/36/36 34/34/34
f 28/28/28 29/29/29 37/37/37 36/36/36
f 29/29/29 30/30/30 38/38/38 37/37/37
f 30/30/30 31/31/31 39/39/39 38/38/38
f 31/31/31 32/32/32 40/40/40 39/39/39
f 32/32/32 33/33/33 41/41/41 40/40/40
f 33/33/33 27/27/27 35/35/35 41/41/41
f 35/35/35 34/70/34 42/69/42 43/43/43
f 34/34/34 36/36/36 44/44/44 42/42/42
f 36/36/36 37/37/37 45/45/45 44/44/44
f 37/37/37 38/38/38 46/46/46 45/45/45
f 38/38/38 39/39/39 47/47/47 46/46/46
f 39/39/39 40/40/40 48/48/48 47/47/47
f 40/40/40 41/41/41 49/49/49 48/48/48
f 41/41/41 35/35/35 43/43/43 49/49/49
f 43/43/43 42/69/42 50/68/50 51/51/51
f 42/42/42 44/44/44 52/52/52 50/50/50
f 44/44/44 45/45/45 53/53/53 52/52/52
f 45/45/45 46/46/46 54/54/54 53/53/53
f 46/46/46 47/47/47 55/55/55 54/54/54
f 47/47/47 48/48/48 56/56/56 55/55/55
f 48/48/48 49/49/49 57/57/57 56/56/56
f 49/49/49 43/43/43 51/51/51 57/57/57
f 51/51/51 50/68/50 58/67/58 59/59/59
f 50/50/50 52/52/52 60/60/60 58/58/58
f 52/52/52 53/53/53 61/61/61 60/60/60
f 53/53/53 54/54/54 62/62/62 61/61/61
f 54/54/54 55/55/55 63/63/63 62/62/62
f 55/55/55 56/56/56 64/64/64 63/63/63
f 56/56/56 57/57/57 65/65/65 64/64/64
f 57/57/57 51/51/51 59/59/59 65/65/65
f 59/59/59 58/67/58 66/66/66
f 58/58/58 60/60/60 66/66/66
f 60/60/60 61/61/61 66/66/66
f 61/61/61 62/62/62 66/66/66
f 62/62/62 63/63/63 66/66/66
f 63/63/63 64/64/64 66/66/66
f 64/64/64 65/65/65 66/66/66
f 65/65/65 59/59/59 66/66/66
s off
f 67/75/67 70/76/68 69/77/69 68/78/70
f 67/75/71 68/78/72 71/79/73
f 68/80/74 69/77/75 71/81/76
f 69/77/77 70/76/78 71/81/79
f 70/76/80 67/82/81 71/81/82
