# This file uses centimeters as units for non-parametric coordinates.

mtllib Male_Cylinder_Head_Obj.mtl
g default
v -3.119718 0.008269 3.707709
v -3.071574 0.008269 3.513932
v -3.126769 0.008269 3.322045
v -3.270512 0.008269 3.183464
v -3.464288 0.008269 3.135320
v -3.656175 0.008269 3.190515
v -3.794757 0.008269 3.334258
v -3.842901 0.008269 3.528034
v -3.787706 0.008269 3.719921
v -3.643963 0.008269 3.858503
v -3.450186 0.008269 3.906647
v -3.258300 0.008269 3.851452
v -3.119718 0.994608 3.707709
v -3.071574 0.994608 3.513932
v -3.126769 0.994608 3.322045
v -3.270512 0.994608 3.183464
v -3.464288 0.994608 3.135320
v -3.656175 0.994608 3.190515
v -3.794757 0.994608 3.334258
v -3.842901 0.994608 3.528034
v -3.787706 0.994608 3.719921
v -3.643963 0.994608 3.858503
v -3.450186 0.994608 3.906647
v -3.258300 0.994608 3.851452
vt 0.169893 0.142234
vt 0.134543 0.121205
vt 0.135254 0.634888
vt 0.170570 0.613792
vt 0.093410 0.120899
vt 0.094147 0.635287
vt 0.057678 0.141215
vt 0.058359 0.615056
vt 0.036937 0.176596
vt 0.037551 0.579705
vt 0.036694 0.217506
vt 0.037186 0.538767
vt 0.548573 0.273692
vt 0.548982 0.480950
vt 0.091476 0.275015
vt 0.091861 0.481151
vt 0.132490 0.274647
vt 0.132810 0.481396
vt 0.168320 0.254526
vt 0.168737 0.501448
vt 0.189414 0.219163
vt 0.189929 0.536759
vt 0.189959 0.178134
vt 0.190587 0.577833
vt 0.590262 0.273559
vt 0.590686 0.480878
vt 0.257241 0.481012
vt 0.298789 0.480995
vt 0.215740 0.481057
vt 0.174302 0.481178
vt 0.057281 0.503063
vt 0.507186 0.480982
vt 0.465418 0.481020
vt 0.423600 0.481017
vt 0.381955 0.481007
vt 0.340310 0.480985
vt 0.256904 0.274622
vt 0.298389 0.274534
vt 0.215426 0.274669
vt 0.173940 0.274710
vt 0.056828 0.253212
vt 0.506801 0.273804
vt 0.464997 0.273927
vt 0.423259 0.274107
vt 0.381595 0.274239
vt 0.339982 0.274396
vn 0.875020 0.000000 0.484086
vn 0.999833 0.000000 -0.018279
vn 0.999833 0.000000 -0.018279
vn 0.875020 0.000000 0.484086
vn 0.856741 0.000000 -0.515747
vn 0.856741 0.000000 -0.515747
vn 0.484086 0.000000 -0.875020
vn 0.484086 0.000000 -0.875020
vn -0.018280 0.000000 -0.999833
vn -0.018280 0.000000 -0.999833
vn -0.515747 0.000000 -0.856741
vn -0.515747 0.000000 -0.856741
vn -0.875021 0.000000 -0.484086
vn -0.875021 0.000000 -0.484086
vn -0.999833 0.000000 0.018280
vn -0.999833 0.000000 0.018280
vn -0.856741 0.000000 0.515747
vn -0.856741 0.000000 0.515747
vn -0.484086 0.000000 0.875021
vn -0.484086 0.000000 0.875021
vn 0.018280 0.000000 0.999833
vn 0.018280 0.000000 0.999833
vn 0.515747 0.000000 0.856741
vn 0.515747 0.000000 0.856741
vn -0.000000 -1.000000 0.000000
vn -0.000000 -1.000000 0.000000
vn -0.000000 -1.000000 0.000000
vn -0.000000 -1.000000 0.000000
vn -0.000000 -1.000000 0.000000
vn 0.000000 -1.000000 -0.000000
vn 0.000000 -1.000000 -0.000000
vn -0.000000 -1.000000 0.000000
vn 0.000000 -1.000000 0.000000
vn 0.000000 -1.000000 0.000000
vn 0.000000 -1.000000 0.000000
vn 0.000000 -1.000000 0.000000
vn 0.000000 1.000000 0.000000
vn 0.000000 1.000000 0.000000
vn 0.000000 1.000000 0.000000
vn 0.000000 1.000000 0.000000
vn 0.000000 1.000000 0.000000
vn 0.000000 1.000000 0.000000
vn 0.000000 1.000000 0.000000
vn 0.000000 1.000000 0.000000
vn 0.000000 1.000000 0.000000
vn 0.000000 1.000000 0.000000
vn 0.000000 1.000000 0.000000
vn 0.000000 1.000000 0.000000
s 1
g pasted__pCylinder1 group7
usemtl pasted__lambert10SG
f 1/38/1 2/46/2 14/36/3 13/28/4
f 2/46/2 3/45/5 15/35/6 14/36/3
f 3/45/5 4/44/7 16/34/8 15/35/6
f 4/44/7 5/43/9 17/33/10 16/34/8
f 5/43/9 6/42/11 18/32/12 17/33/10
f 6/42/11 7/13/13 19/14/14 18/32/12
f 7/13/13 8/25/15 20/26/16 19/14/14
f 8/15/15 9/17/17 21/18/18 20/16/16
f 9/17/17 10/40/19 22/30/20 21/18/18
f 10/40/19 11/39/21 23/29/22 22/30/20
f 11/39/21 12/37/23 24/27/24 23/29/22
f 12/37/23 1/38/1 13/28/4 24/27/24
s 2
f 2/2/25 1/1/26 8/15/27
f 3/5/28 2/2/25 8/15/27
f 4/7/29 3/5/28 8/15/27
f 5/9/30 4/7/29 8/15/27
f 6/11/31 5/9/30 8/15/27
f 7/41/32 6/11/31 8/15/27
f 10/19/33 9/17/34 8/15/27
f 11/21/35 10/19/33 8/15/27
f 12/23/36 11/21/35 8/15/27
f 1/1/26 12/23/36 8/15/27
s 4
f 13/4/37 14/3/38 20/16/39
f 14/3/38 15/6/40 20/16/39
f 15/6/40 16/8/41 20/16/39
f 16/8/41 17/10/42 20/16/39
f 17/10/42 18/12/43 20/16/39
f 18/12/43 19/31/44 20/16/39
f 21/18/45 22/20/46 20/16/39
f 22/20/46 23/22/47 20/16/39
f 23/22/47 24/24/48 20/16/39
f 24/24/48 13/4/37 20/16/39
