# This file uses centimeters as units for non-parametric coordinates.

mtllib Male_Cube_Sphere_Obj.mtl
g default
v -3.399778 0.021433 5.493177
v -3.446084 0.021433 5.446872
v -3.509338 0.021433 5.429923
v -3.572592 0.021433 5.446872
v -3.618898 0.021433 5.493177
v -3.635846 0.021433 5.556431
v -3.618898 0.021433 5.619686
v -3.572592 0.021433 5.665991
v -3.509338 0.021433 5.682940
v -3.446084 0.021433 5.665991
v -3.399778 0.021433 5.619686
v -3.382830 0.021433 5.556431
v -3.297685 0.070264 5.434234
v -3.387140 0.070264 5.344779
v -3.509338 0.070264 5.312035
v -3.631536 0.070264 5.344779
v -3.720991 0.070264 5.434234
v -3.753734 0.070264 5.556431
v -3.720991 0.070264 5.678629
v -3.631536 0.070264 5.768084
v -3.509338 0.070264 5.800827
v -3.387140 0.070264 5.768084
v -3.297685 0.070264 5.678629
v -3.264942 0.070264 5.556431
v -3.210016 0.147942 5.383617
v -3.336524 0.147942 5.257109
v -3.509338 0.147942 5.210804
v -3.682152 0.147942 5.257109
v -3.808660 0.147942 5.383617
v -3.854966 0.147942 5.556431
v -3.808660 0.147942 5.729245
v -3.682152 0.147942 5.855754
v -3.509338 0.147942 5.902059
v -3.336524 0.147942 5.855754
v -3.210016 0.147942 5.729245
v -3.163710 0.147942 5.556431
v -3.142745 0.249174 5.344779
v -3.297685 0.249174 5.189838
v -3.509338 0.249174 5.133126
v -3.720991 0.249174 5.189838
v -3.875931 0.249174 5.344779
v -3.932644 0.249174 5.556431
v -3.875931 0.249174 5.768084
v -3.720991 0.249174 5.923025
v -3.509338 0.249174 5.979737
v -3.297685 0.249174 5.923025
v -3.142745 0.249174 5.768084
v -3.086033 0.249174 5.556431
v -3.100456 0.367061 5.320364
v -3.273270 0.367061 5.147550
v -3.509338 0.367061 5.084295
v -3.745406 0.367061 5.147550
v -3.918220 0.367061 5.320364
v -3.981474 0.367061 5.556431
v -3.918220 0.367061 5.792499
v -3.745406 0.367061 5.965313
v -3.509338 0.367061 6.028567
v -3.273270 0.367061 5.965313
v -3.100456 0.367061 5.792499
v -3.037202 0.367061 5.556431
v -3.086033 0.493569 5.312035
v -3.264942 0.493569 5.133126
v -3.509338 0.493569 5.067640
v -3.753734 0.493569 5.133126
v -3.932644 0.493569 5.312035
v -3.998129 0.493569 5.556431
v -3.932644 0.493569 5.800827
v -3.753734 0.493569 5.979737
v -3.509338 0.493569 6.045222
v -3.264942 0.493569 5.979737
v -3.086033 0.493569 5.800827
v -3.020547 0.493569 5.556431
v -3.100456 0.620078 5.320364
v -3.273270 0.620078 5.147550
v -3.509338 0.620078 5.084295
v -3.745406 0.620078 5.147550
v -3.918220 0.620078 5.320364
v -3.981474 0.620078 5.556431
v -3.918220 0.620078 5.792499
v -3.745406 0.620078 5.965313
v -3.509338 0.620078 6.028567
v -3.273270 0.620078 5.965313
v -3.100456 0.620078 5.792499
v -3.037202 0.620078 5.556431
v -3.142745 0.737965 5.344779
v -3.297685 0.737965 5.189838
v -3.509338 0.737965 5.133126
v -3.720991 0.737965 5.189838
v -3.875931 0.737965 5.344779
v -3.932644 0.737965 5.556431
v -3.875931 0.737965 5.768084
v -3.720991 0.737965 5.923025
v -3.509338 0.737965 5.979737
v -3.297685 0.737965 5.923025
v -3.142745 0.737965 5.768084
v -3.086033 0.737965 5.556431
v -3.210016 0.839197 5.383617
v -3.336524 0.839197 5.257109
v -3.509338 0.839197 5.210804
v -3.682152 0.839197 5.257109
v -3.808660 0.839197 5.383617
v -3.854966 0.839197 5.556431
v -3.808660 0.839197 5.729245
v -3.682152 0.839197 5.855754
v -3.509338 0.839197 5.902059
v -3.336524 0.839197 5.855754
v -3.210016 0.839197 5.729245
v -3.163710 0.839197 5.556431
v -3.297685 0.916875 5.434234
v -3.387140 0.916875 5.344779
v -3.509338 0.916875 5.312035
v -3.631536 0.916875 5.344779
v -3.720991 0.916875 5.434234
v -3.753734 0.916875 5.556431
v -3.720991 0.916875 5.678629
v -3.631536 0.916875 5.768084
v -3.509338 0.916875 5.800827
v -3.387140 0.916875 5.768084
v -3.297685 0.916875 5.678629
v -3.264942 0.916875 5.556431
v -3.399778 0.965705 5.493177
v -3.446084 0.965705 5.446872
v -3.509338 0.965705 5.429923
v -3.572592 0.965705 5.446872
v -3.618898 0.965705 5.493177
v -3.635846 0.965705 5.556431
v -3.618898 0.965705 5.619686
v -3.572592 0.965705 5.665991
v -3.509338 0.965705 5.682940
v -3.446084 0.965705 5.665991
v -3.399778 0.965705 5.619686
v -3.382830 0.965705 5.556431
vt 0.826925 0.106836
vt 0.835466 0.092487
vt 0.886793 0.136181
vt 0.855078 0.145219
vt 0.834651 0.076529
vt 0.493603 0.047477
vt 0.542392 0.029965
vt 0.510063 0.058937
vt 0.548393 0.039036
vt 0.530579 0.064342
vt 0.552377 0.046559
vt 0.552230 0.065615
vt 0.570250 0.045152
vt 0.573840 0.063783
vt 0.579865 0.040999
vt 0.594486 0.057643
vt 0.586565 0.033006
vt 0.732919 0.118141
vt 0.779088 0.113409
vt 0.757165 0.136902
vt 0.794519 0.119200
vt 0.788523 0.145641
vt 0.822848 0.118622
vt 0.821783 0.147842
vt 0.903895 0.165160
vt 0.862418 0.174925
vt 0.473977 0.064163
vt 0.499137 0.077411
vt 0.525789 0.083536
vt 0.552429 0.085015
vt 0.579009 0.083032
vt 0.605999 0.076346
vt 0.701484 0.143535
vt 0.739615 0.164937
vt 0.780568 0.175029
vt 0.821520 0.177607
vt 0.915530 0.195274
vt 0.867166 0.202969
vt 0.458740 0.085249
vt 0.491673 0.096712
vt 0.522780 0.101781
vt 0.552526 0.102915
vt 0.582392 0.101296
vt 0.613946 0.095939
vt 0.676986 0.176177
vt 0.727387 0.194609
vt 0.775478 0.203069
vt 0.821390 0.205234
vt 0.922096 0.225545
vt 0.869827 0.229692
vt 0.449054 0.109352
vt 0.487263 0.116233
vt 0.521120 0.119059
vt 0.552625 0.119618
vt 0.584297 0.118693
vt 0.618469 0.115838
vt 0.661329 0.214034
vt 0.720311 0.225139
vt 0.772599 0.229818
vt 0.821215 0.230951
vt 0.924231 0.255828
vt 0.870648 0.255758
vt 0.445516 0.135115
vt 0.485748 0.135838
vt 0.520569 0.135886
vt 0.552723 0.135842
vt 0.584895 0.135720
vt 0.619844 0.135804
vt 0.655567 0.254591
vt 0.717891 0.255892
vt 0.771662 0.256019
vt 0.821157 0.255813
vt 0.921905 0.286004
vt 0.869799 0.281647
vt 0.448348 0.161119
vt 0.487126 0.155512
vt 0.521102 0.152825
vt 0.552693 0.152004
vt 0.584285 0.152743
vt 0.618265 0.155786
vt 0.660138 0.295567
vt 0.719993 0.286599
vt 0.772575 0.282207
vt 0.821319 0.280797
vt 0.915105 0.316049
vt 0.867243 0.308236
vt 0.457536 0.185895
vt 0.491404 0.175186
vt 0.522828 0.170192
vt 0.552581 0.168721
vt 0.582410 0.170121
vt 0.613660 0.175610
vt 0.674992 0.334456
vt 0.726945 0.317225
vt 0.775506 0.308973
vt 0.821475 0.306498
vt 0.903617 0.345750
vt 0.862614 0.336307
vt 0.472732 0.207888
vt 0.498957 0.194750
vt 0.525915 0.188414
vt 0.552490 0.186668
vt 0.579097 0.188345
vt 0.605724 0.194898
vt 0.699335 0.368670
vt 0.739194 0.347383
vt 0.780715 0.337087
vt 0.821605 0.334030
vt 0.886797 0.374176
vt 0.855240 0.365850
vt 0.492945 0.225552
vt 0.510060 0.213593
vt 0.530685 0.207719
vt 0.552323 0.206013
vt 0.573927 0.207447
vt 0.594314 0.213119
vt 0.731785 0.395673
vt 0.756901 0.376156
vt 0.788663 0.366699
vt 0.821913 0.363892
vt 0.837073 0.418728
vt 0.827863 0.404769
vt 0.543973 0.252378
vt 0.543443 0.241982
vt 0.548986 0.232658
vt 0.551624 0.225004
vt 0.570045 0.224626
vt 0.580075 0.228411
vt 0.769111 0.414042
vt 0.779404 0.401751
vt 0.794191 0.395375
vt 0.821699 0.393216
vt 0.768204 0.102067
vt 0.514674 0.036695
vt 0.587154 0.235763
vt 0.879683 0.408381
vt 0.610082 0.225314
vt 0.912109 0.391811
vt 0.630507 0.208819
vt 0.942318 0.366144
vt 0.646427 0.187603
vt 0.965777 0.333686
vt 0.656598 0.163002
vt 0.980690 0.296587
vt 0.660341 0.136646
vt 0.986138 0.256938
vt 0.657373 0.110015
vt 0.981778 0.216913
vt 0.647725 0.084742
vt 0.967625 0.178781
vt 0.631904 0.062506
vt 0.944230 0.144947
vt 0.610820 0.044952
vt 0.913125 0.117775
vt 0.566558 0.225432
vt 0.558801 0.226460
vt 0.536811 0.226745
vt 0.524035 0.230816
vt 0.515627 0.238051
vt 0.567122 0.044931
vt 0.558808 0.044326
vt 0.537488 0.046107
vt 0.524038 0.043132
vt 0.542284 0.019343
vt 0.811818 0.396650
vt 0.844604 0.393919
vt 0.798994 0.395700
vt 0.865280 0.398485
vt 0.837246 0.435089
vt 0.811811 0.116379
vt 0.845645 0.115953
vt 0.799870 0.117957
vt 0.865298 0.109688
vt 0.878218 0.098557
vn 0.232975 -0.963135 -0.134508
vn 0.109284 -0.975822 -0.189285
vn 0.270244 -0.841351 -0.468076
vn 0.468076 -0.841352 -0.270244
vn -0.000000 -0.978949 -0.204105
vn 0.000000 -0.841351 -0.540489
vn -0.109284 -0.975822 -0.189285
vn -0.270244 -0.841351 -0.468077
vn -0.232975 -0.963136 -0.134508
vn -0.468077 -0.841352 -0.270244
vn -0.360763 -0.932658 -0.000000
vn -0.540488 -0.841352 -0.000000
vn -0.232975 -0.963136 0.134508
vn -0.468077 -0.841352 0.270244
vn -0.109283 -0.975822 0.189285
vn -0.270244 -0.841352 0.468077
vn 0.000000 -0.978949 0.204106
vn 0.000000 -0.841352 0.540488
vn 0.109284 -0.975822 0.189285
vn 0.270244 -0.841352 0.468077
vn 0.232975 -0.963135 0.134508
vn 0.468076 -0.841352 0.270244
vn 0.360763 -0.932657 0.000000
vn 0.540488 -0.841352 -0.000000
vn 0.364806 -0.683862 -0.631862
vn 0.631862 -0.683862 -0.364806
vn -0.000000 -0.683862 -0.729611
vn -0.364805 -0.683862 -0.631862
vn -0.631862 -0.683862 -0.364806
vn -0.729611 -0.683862 -0.000000
vn -0.631862 -0.683862 0.364806
vn -0.364805 -0.683862 0.631862
vn -0.000000 -0.683862 0.729611
vn 0.364806 -0.683862 0.631862
vn 0.631862 -0.683862 0.364806
vn 0.729611 -0.683862 -0.000000
vn 0.438135 -0.481822 -0.758871
vn 0.758871 -0.481822 -0.438135
vn -0.000000 -0.481823 -0.876269
vn -0.438135 -0.481822 -0.758871
vn -0.758871 -0.481822 -0.438135
vn -0.876269 -0.481822 -0.000000
vn -0.758871 -0.481822 0.438135
vn -0.438135 -0.481822 0.758871
vn -0.000000 -0.481823 0.876269
vn 0.438135 -0.481822 0.758871
vn 0.758871 -0.481822 0.438135
vn 0.876269 -0.481822 0.000000
vn 0.484273 -0.248838 -0.838785
vn 0.838785 -0.248838 -0.484272
vn -0.000000 -0.248837 -0.968545
vn -0.484273 -0.248837 -0.838785
vn -0.838785 -0.248837 -0.484272
vn -0.968545 -0.248837 0.000000
vn -0.838785 -0.248837 0.484273
vn -0.484273 -0.248837 0.838785
vn -0.000000 -0.248837 0.968545
vn 0.484273 -0.248837 0.838785
vn 0.838785 -0.248837 0.484272
vn 0.968545 -0.248837 0.000000
vn 0.500000 0.000000 -0.866026
vn 0.866025 -0.000000 -0.500001
vn 0.000000 -0.000000 -1.000000
vn -0.500000 -0.000000 -0.866026
vn -0.866025 -0.000000 -0.500000
vn -1.000000 -0.000000 -0.000000
vn -0.866025 -0.000000 0.500000
vn -0.500000 0.000000 0.866025
vn 0.000000 -0.000000 1.000000
vn 0.500000 0.000000 0.866025
vn 0.866025 0.000000 0.500000
vn 1.000000 -0.000000 -0.000000
vn 0.484273 0.248838 -0.838785
vn 0.838785 0.248838 -0.484272
vn 0.000000 0.248837 -0.968545
vn -0.484273 0.248837 -0.838785
vn -0.838785 0.248837 -0.484272
vn -0.968545 0.248837 0.000000
vn -0.838785 0.248837 0.484273
vn -0.484273 0.248837 0.838785
vn 0.000000 0.248837 0.968545
vn 0.484273 0.248837 0.838785
vn 0.838785 0.248837 0.484273
vn 0.968545 0.248837 -0.000000
vn 0.438135 0.481822 -0.758871
vn 0.758871 0.481822 -0.438135
vn 0.000000 0.481823 -0.876269
vn -0.438135 0.481822 -0.758871
vn -0.758871 0.481822 -0.438135
vn -0.876269 0.481822 -0.000000
vn -0.758871 0.481822 0.438135
vn -0.438135 0.481822 0.758871
vn 0.000000 0.481823 0.876269
vn 0.438135 0.481822 0.758871
vn 0.758871 0.481822 0.438135
vn 0.876269 0.481822 -0.000000
vn 0.364806 0.683862 -0.631862
vn 0.631862 0.683862 -0.364806
vn 0.000000 0.683862 -0.729611
vn -0.364805 0.683862 -0.631862
vn -0.631861 0.683862 -0.364806
vn -0.729611 0.683862 -0.000000
vn -0.631862 0.683862 0.364806
vn -0.364805 0.683862 0.631862
vn 0.000000 0.683862 0.729611
vn 0.364806 0.683862 0.631862
vn 0.631862 0.683862 0.364806
vn 0.729611 0.683862 0.000000
vn 0.270244 0.841351 -0.468077
vn 0.468076 0.841352 -0.270244
vn 0.000000 0.841351 -0.540489
vn -0.270244 0.841351 -0.468077
vn -0.468077 0.841352 -0.270244
vn -0.540488 0.841352 -0.000000
vn -0.468077 0.841352 0.270244
vn -0.270244 0.841352 0.468077
vn 0.000000 0.841352 0.540488
vn 0.270244 0.841352 0.468077
vn 0.468076 0.841352 0.270244
vn 0.540488 0.841352 -0.000000
vn 0.109284 0.975822 -0.189285
vn 0.232975 0.963135 -0.134509
vn -0.000000 0.978949 -0.204105
vn -0.109284 0.975822 -0.189285
vn -0.232975 0.963136 -0.134508
vn -0.360763 0.932658 0.000000
vn -0.232975 0.963136 0.134508
vn -0.109283 0.975822 0.189285
vn 0.000000 0.978949 0.204106
vn 0.109284 0.975822 0.189285
vn 0.232975 0.963135 0.134508
vn 0.360763 0.932657 -0.000000
s 1
g pasted__pasted__pSphere1 pasted__group2 group6
usemtl pasted__lambert2SG
f 1/171/1 2/173/2 14/3/3 13/4/4
f 2/173/2 3/174/5 15/154/6 14/3/3
f 3/134/5 4/163/7 16/8/8 15/6/6
f 4/163/7 5/162/9 17/10/10 16/8/8
f 5/162/9 6/11/11 18/12/12 17/10/10
f 6/11/11 7/160/13 19/14/14 18/12/12
f 7/160/13 8/15/15 20/16/16 19/14/14
f 8/15/15 9/17/17 21/153/18 20/16/16
f 9/133/17 10/19/19 22/20/20 21/18/18
f 10/19/19 11/172/21 23/22/22 22/20/20
f 11/172/21 12/23/23 24/24/24 23/22/22
f 12/23/23 1/171/1 13/4/4 24/24/24
f 13/4/4 14/3/3 26/25/25 25/26/26
f 14/3/3 15/154/6 27/152/27 26/25/25
f 15/6/6 16/8/8 28/28/28 27/27/27
f 16/8/8 17/10/10 29/29/29 28/28/28
f 17/10/10 18/12/12 30/30/30 29/29/29
f 18/12/12 19/14/14 31/31/31 30/30/30
f 19/14/14 20/16/16 32/32/32 31/31/31
f 20/16/16 21/153/18 33/151/33 32/32/32
f 21/18/18 22/20/20 34/34/34 33/33/33
f 22/20/20 23/22/22 35/35/35 34/34/34
f 23/22/22 24/24/24 36/36/36 35/35/35
f 24/24/24 13/4/4 25/26/26 36/36/36
f 25/26/26 26/25/25 38/37/37 37/38/38
f 26/25/25 27/152/27 39/150/39 38/37/37
f 27/27/27 28/28/28 40/40/40 39/39/39
f 28/28/28 29/29/29 41/41/41 40/40/40
f 29/29/29 30/30/30 42/42/42 41/41/41
f 30/30/30 31/31/31 43/43/43 42/42/42
f 31/31/31 32/32/32 44/44/44 43/43/43
f 32/32/32 33/151/33 45/149/45 44/44/44
f 33/33/33 34/34/34 46/46/46 45/45/45
f 34/34/34 35/35/35 47/47/47 46/46/46
f 35/35/35 36/36/36 48/48/48 47/47/47
f 36/36/36 25/26/26 37/38/38 48/48/48
f 37/38/38 38/37/37 50/49/49 49/50/50
f 38/37/37 39/150/39 51/148/51 50/49/49
f 39/39/39 40/40/40 52/52/52 51/51/51
f 40/40/40 41/41/41 53/53/53 52/52/52
f 41/41/41 42/42/42 54/54/54 53/53/53
f 42/42/42 43/43/43 55/55/55 54/54/54
f 43/43/43 44/44/44 56/56/56 55/55/55
f 44/44/44 45/149/45 57/147/57 56/56/56
f 45/45/45 46/46/46 58/58/58 57/57/57
f 46/46/46 47/47/47 59/59/59 58/58/58
f 47/47/47 48/48/48 60/60/60 59/59/59
f 48/48/48 37/38/38 49/50/50 60/60/60
f 49/50/50 50/49/49 62/61/61 61/62/62
f 50/49/49 51/148/51 63/146/63 62/61/61
f 51/51/51 52/52/52 64/64/64 63/63/63
f 52/52/52 53/53/53 65/65/65 64/64/64
f 53/53/53 54/54/54 66/66/66 65/65/65
f 54/54/54 55/55/55 67/67/67 66/66/66
f 55/55/55 56/56/56 68/68/68 67/67/67
f 56/56/56 57/147/57 69/145/69 68/68/68
f 57/57/57 58/58/58 70/70/70 69/69/69
f 58/58/58 59/59/59 71/71/71 70/70/70
f 59/59/59 60/60/60 72/72/72 71/71/71
f 60/60/60 49/50/50 61/62/62 72/72/72
f 61/62/62 62/61/61 74/73/73 73/74/74
f 62/61/61 63/146/63 75/144/75 74/73/73
f 63/63/63 64/64/64 76/76/76 75/75/75
f 64/64/64 65/65/65 77/77/77 76/76/76
f 65/65/65 66/66/66 78/78/78 77/77/77
f 66/66/66 67/67/67 79/79/79 78/78/78
f 67/67/67 68/68/68 80/80/80 79/79/79
f 68/68/68 69/145/69 81/143/81 80/80/80
f 69/69/69 70/70/70 82/82/82 81/81/81
f 70/70/70 71/71/71 83/83/83 82/82/82
f 71/71/71 72/72/72 84/84/84 83/83/83
f 72/72/72 61/62/62 73/74/74 84/84/84
f 73/74/74 74/73/73 86/85/85 85/86/86
f 74/73/73 75/144/75 87/142/87 86/85/85
f 75/75/75 76/76/76 88/88/88 87/87/87
f 76/76/76 77/77/77 89/89/89 88/88/88
f 77/77/77 78/78/78 90/90/90 89/89/89
f 78/78/78 79/79/79 91/91/91 90/90/90
f 79/79/79 80/80/80 92/92/92 91/91/91
f 80/80/80 81/143/81 93/141/93 92/92/92
f 81/81/81 82/82/82 94/94/94 93/93/93
f 82/82/82 83/83/83 95/95/95 94/94/94
f 83/83/83 84/84/84 96/96/96 95/95/95
f 84/84/84 73/74/74 85/86/86 96/96/96
f 85/86/86 86/85/85 98/97/97 97/98/98
f 86/85/85 87/142/87 99/140/99 98/97/97
f 87/87/87 88/88/88 100/100/100 99/99/99
f 88/88/88 89/89/89 101/101/101 100/100/100
f 89/89/89 90/90/90 102/102/102 101/101/101
f 90/90/90 91/91/91 103/103/103 102/102/102
f 91/91/91 92/92/92 104/104/104 103/103/103
f 92/92/92 93/141/93 105/139/105 104/104/104
f 93/93/93 94/94/94 106/106/106 105/105/105
f 94/94/94 95/95/95 107/107/107 106/106/106
f 95/95/95 96/96/96 108/108/108 107/107/107
f 96/96/96 85/86/86 97/98/98 108/108/108
f 97/98/98 98/97/97 110/109/109 109/110/110
f 98/97/97 99/140/99 111/138/111 110/109/109
f 99/99/99 100/100/100 112/112/112 111/111/111
f 100/100/100 101/101/101 113/113/113 112/112/112
f 101/101/101 102/102/102 114/114/114 113/113/113
f 102/102/102 103/103/103 115/115/115 114/114/114
f 103/103/103 104/104/104 116/116/116 115/115/115
f 104/104/104 105/139/105 117/137/117 116/116/116
f 105/105/105 106/106/106 118/118/118 117/117/117
f 106/106/106 107/107/107 119/119/119 118/118/118
f 107/107/107 108/108/108 120/120/120 119/119/119
f 108/108/108 97/98/98 109/110/110 120/120/120
f 109/110/110 110/109/109 122/168/121 121/166/122
f 110/109/109 111/138/111 123/136/123 122/168/121
f 111/111/111 112/112/112 124/158/124 123/159/123
f 112/112/112 113/113/113 125/157/125 124/158/124
f 113/113/113 114/114/114 126/126/126 125/157/125
f 114/114/114 115/115/115 127/155/127 126/126/126
f 115/115/115 116/116/116 128/128/128 127/155/127
f 116/116/116 117/137/117 129/135/129 128/128/128
f 117/117/117 118/118/118 130/130/130 129/129/129
f 118/118/118 119/119/119 131/167/131 130/130/130
f 119/119/119 120/120/120 132/132/132 131/167/131
f 120/120/120 109/110/110 121/166/122 132/132/132
f 12/170/23 11/21/21 1/1/1
f 127/127/127 125/125/125 126/156/126
f 129/135/129 123/123/123 124/124/124 128/128/128
f 128/128/128 124/124/124 125/125/125 127/127/127
f 130/130/130 122/121/121 123/169/123 129/129/129
f 131/131/131 121/122/122 122/121/121 130/130/130
f 131/131/131 132/165/132 121/122/122
f 5/9/9 7/13/13 6/161/11
f 4/7/7 8/15/15 7/13/13 5/9/9
f 3/164/5 9/17/17 8/15/15 4/7/7
f 2/2/2 10/19/19 9/133/17 3/5/5
f 1/1/1 11/21/21 10/19/19 2/2/2
