# This file uses centimeters as units for non-parametric coordinates.

mtllib Female_Sexy_body.mtl
g default
v -2.026970 0.040859 5.971335
v -1.026970 0.040859 5.971335
v -1.978650 0.528605 5.923015
v -1.075289 0.528605 5.923015
v -1.855725 0.792241 5.800090
v -1.198214 0.792241 5.800090
v -1.978650 1.055879 5.923016
v -1.075289 1.055879 5.923016
v -2.026970 1.543625 5.971335
v -1.026970 1.543625 5.971335
v -2.026970 1.543625 4.971335
v -1.026970 1.543625 4.971335
v -1.978650 1.055879 5.019654
v -1.075289 1.055879 5.019654
v -1.855725 0.792241 5.142579
v -1.198214 0.792241 5.142579
v -1.978650 0.528605 5.019654
v -1.075289 0.528605 5.019654
v -2.026970 0.040859 4.971335
v -1.026970 0.040859 4.971335
v -0.990604 1.355415 4.934969
v -2.063335 1.355415 4.934969
v -2.063335 1.355415 6.007700
v -0.990604 1.355415 6.007700
v -0.986229 0.197118 4.930595
v -2.067710 0.197118 4.930595
v -2.067710 0.197118 6.012075
v -0.986229 0.197118 6.012075
vt 0.028179 0.204962
vt 0.165528 0.204962
vt 0.154217 0.247061
vt 0.039490 0.247061
vt 0.138606 0.280543
vt 0.055101 0.280543
vt 0.154217 0.314025
vt 0.039490 0.314025
vt 0.028735 0.352066
vt 0.164972 0.352066
vt 0.435199 0.375602
vt 0.308199 0.375602
vt 0.303581 0.351700
vt 0.439818 0.351700
vt 0.429063 0.313658
vt 0.314335 0.313658
vt 0.329947 0.280176
vt 0.413451 0.280176
vt 0.314335 0.246695
vt 0.429063 0.246695
vt 0.298706 0.056316
vt 0.298256 0.185117
vt 0.165631 0.204962
vt 0.302979 0.204962
vt 0.291669 0.247061
vt 0.176942 0.247061
vt 0.276057 0.280543
vt 0.442261 0.206366
vt 0.579610 0.206366
vt 0.568299 0.248465
vt 0.453572 0.248465
vt 0.552688 0.281947
vt 0.303025 0.204596
vt 0.192553 0.280543
vt 0.469184 0.281947
vt 0.440373 0.204596
vt 0.160354 0.375969
vt 0.033353 0.375969
vt 0.308199 0.184751
vt 0.291669 0.314025
vt 0.568299 0.315429
vt 0.435199 0.184751
vt 0.033353 0.185117
vt 0.160354 0.185117
vt 0.176942 0.314025
vt 0.166187 0.352066
vt 0.302424 0.352066
vt 0.297055 0.375969
vt 0.171556 0.375969
vt 0.170355 0.185117
vt 0.172306 0.499967
vt 0.296304 0.499967
vt 0.169905 0.056316
vt 0.453572 0.315429
vt 0.442817 0.353470
vt 0.579054 0.353470
vt 0.574436 0.377373
vt 0.447435 0.377373
vt 0.447435 0.186521
vt 0.574436 0.186521
vn 0.000000 0.092333 0.995728
vn 0.000000 0.092333 0.995728
vn 0.000000 0.303778 0.952743
vn 0.000000 0.303778 0.952743
vn 0.000000 -0.000002 1.000000
vn 0.000000 -0.000002 1.000000
vn 0.000000 -0.315797 0.948827
vn 0.000000 -0.315797 0.948827
vn 0.000000 -0.084074 0.996459
vn 0.000000 -0.084074 0.996459
vn 0.000000 0.189710 0.981840
vn 0.000000 0.189710 0.981840
vn 0.000000 1.000000 0.000000
vn 0.000000 1.000000 0.000000
vn 0.000000 1.000000 0.000000
vn 0.000000 1.000000 0.000000
vn 0.000000 0.189710 -0.981840
vn 0.000000 0.189710 -0.981840
vn 0.000000 -0.084074 -0.996460
vn 0.000000 -0.084074 -0.996460
vn 0.000000 -0.315797 -0.948827
vn 0.000000 -0.315797 -0.948827
vn 0.000000 0.000000 -1.000000
vn 0.000000 0.000000 -1.000000
vn 0.000000 0.303777 -0.952743
vn 0.000000 0.303777 -0.952743
vn 0.000000 0.092331 -0.995728
vn 0.000000 0.092331 -0.995728
vn 0.000000 -1.000000 0.000000
vn 0.000000 -1.000000 0.000000
vn 0.000000 -1.000000 0.000000
vn 0.000000 -1.000000 0.000000
vn 0.995728 0.092332 0.000000
vn 0.995728 0.092332 0.000000
vn 0.952743 0.303779 0.000000
vn 0.952743 0.303779 0.000000
vn 1.000000 0.000000 0.000000
vn 1.000000 -0.000000 0.000000
vn 0.948827 -0.315796 0.000000
vn 0.948827 -0.315796 0.000000
vn 0.996459 -0.084075 0.000000
vn 0.996459 -0.084075 0.000000
vn 0.981840 0.189709 0.000000
vn 0.981840 0.189709 0.000000
vn -0.995728 0.092332 0.000000
vn -0.995728 0.092332 0.000000
vn -0.952743 0.303779 0.000000
vn -0.952743 0.303779 0.000000
vn -1.000000 -0.000000 0.000000
vn -1.000000 -0.000000 0.000000
vn -0.948827 -0.315796 0.000000
vn -0.948827 -0.315796 0.000000
vn -0.996459 -0.084075 0.000000
vn -0.996459 -0.084075 0.000000
vn -0.981840 0.189709 0.000000
vn -0.981840 0.189709 0.000000
vn 0.000000 -0.252287 -0.967652
vn 0.000000 -0.252287 -0.967652
vn -0.967652 -0.252290 0.000000
vn -0.967652 -0.252290 0.000000
vn 0.000000 -0.252287 0.967652
vn 0.000000 -0.252287 0.967652
vn 0.967652 -0.252290 0.000000
vn 0.967652 -0.252290 0.000000
s 1
g pasted__pasted__pCube1 pasted__group17 group18
usemtl initialShadingGroup
f 27/1/1 28/2/2 4/3/3 3/4/4
f 3/4/4 4/3/3 6/5/5 5/6/6
f 5/6/6 6/5/5 8/7/7 7/8/8
f 23/9/9 24/10/10 10/37/11 9/38/12
s off
f 9/51/13 10/49/14 12/48/15 11/52/16
s 2
f 11/11/17 12/12/18 21/13/19 22/14/20
f 13/15/21 14/16/22 16/17/23 15/18/24
f 15/18/24 16/17/23 18/19/25 17/20/26
f 17/20/26 18/19/25 25/33/27 26/36/28
s off
f 19/21/29 20/22/30 2/50/31 1/53/32
s 3
f 28/23/33 25/24/34 18/25/35 4/26/36
f 4/26/36 18/25/35 16/27/37 6/34/38
f 6/34/38 16/27/37 14/40/39 8/45/40
f 24/46/41 21/47/42 12/48/43 10/49/44
s 4
f 26/28/45 27/29/46 3/30/47 17/31/48
f 17/31/48 3/30/47 5/32/49 15/35/50
f 15/35/50 5/32/49 7/41/51 13/54/52
f 22/55/53 23/56/54 9/57/55 11/58/56
s 2
f 22/14/20 21/13/19 14/16/22 13/15/21
s 4
f 13/54/52 7/41/51 23/56/54 22/55/53
s 1
f 7/8/8 8/7/7 24/10/10 23/9/9
s 3
f 8/45/40 14/40/39 21/47/42 24/46/41
s 2
f 26/36/28 25/33/27 20/39/57 19/42/58
s 4
f 19/59/59 1/60/60 27/29/46 26/28/45
s 1
f 1/43/61 2/44/62 28/2/2 27/1/1
s 3
f 2/50/63 20/22/64 25/24/34 28/23/33
