# This file uses centimeters as units for non-parametric coordinates.

mtllib gray_body_base.mtl
g default
v -5.183985 0.040859 10.009752
v -4.183985 0.040859 10.009752
v -5.183985 1.543625 10.009752
v -4.183985 1.543625 10.009752
v -5.183985 1.543625 9.009752
v -4.183985 1.543625 9.009752
v -5.183985 0.040859 9.009752
v -4.183985 0.040859 9.009752
vt 0.375000 0.000000
vt 0.625000 0.000000
vt 0.375000 0.250000
vt 0.625000 0.250000
vt 0.375000 0.500000
vt 0.625000 0.500000
vt 0.375000 0.750000
vt 0.625000 0.750000
vt 0.375000 1.000000
vt 0.625000 1.000000
vt 0.875000 0.000000
vt 0.875000 0.250000
vt 0.125000 0.000000
vt 0.125000 0.250000
vn 0.000000 0.000000 1.000000
vn 0.000000 0.000000 1.000000
vn 0.000000 0.000000 1.000000
vn 0.000000 0.000000 1.000000
vn 0.000000 1.000000 0.000000
vn 0.000000 1.000000 0.000000
vn 0.000000 1.000000 0.000000
vn 0.000000 1.000000 0.000000
vn 0.000000 0.000000 -1.000000
vn 0.000000 0.000000 -1.000000
vn 0.000000 0.000000 -1.000000
vn 0.000000 0.000000 -1.000000
vn 0.000000 -1.000000 0.000000
vn 0.000000 -1.000000 0.000000
vn 0.000000 -1.000000 0.000000
vn 0.000000 -1.000000 0.000000
vn 1.000000 0.000000 0.000000
vn 1.000000 0.000000 0.000000
vn 1.000000 0.000000 0.000000
vn 1.000000 0.000000 0.000000
vn -1.000000 0.000000 0.000000
vn -1.000000 0.000000 0.000000
vn -1.000000 0.000000 0.000000
vn -1.000000 0.000000 0.000000
s off
g pasted__pCube1 group8
usemtl initialShadingGroup
f 4/4/1 3/3/2 1/1/3 2/2/4
f 3/3/5 4/4/6 6/6/7 5/5/8
f 8/8/9 7/7/10 5/5/11 6/6/12
f 7/7/13 8/8/14 2/10/15 1/9/16
f 4/4/17 2/2/18 8/11/19 6/12/20
f 1/1/21 3/3/22 5/14/23 7/13/24
