# This file uses centimeters as units for non-parametric coordinates.

mtllib Male_Dirty_body.mtl
g default
v 2.092379 0.040859 3.987354
v 3.092379 0.040859 3.987354
v 2.092379 1.543625 3.987354
v 3.092379 1.543625 3.987354
v 2.092379 1.543625 2.987354
v 3.092379 1.543625 2.987354
v 2.092379 0.040859 2.987354
v 3.092379 0.040859 2.987354
vt 0.750941 0.243769
vt 0.750941 0.330798
vt 0.993430 0.126396
vt 0.750941 0.126396
vt 0.838009 0.243769
vt 0.915532 0.243769
vt 0.838009 0.126396
vt 0.838009 0.039447
vt 0.915519 0.126396
vt 0.674187 0.126396
vt 0.750941 0.039600
vt 0.674176 0.243769
vt 0.993416 0.243769
vt 0.838009 0.330798
vn 0.000000 0.000000 1.000000
vn 0.000000 0.000000 1.000000
vn 0.000000 0.000000 1.000000
vn 0.000000 0.000000 1.000000
vn 0.000000 1.000000 0.000000
vn 0.000000 1.000000 0.000000
vn 0.000000 1.000000 0.000000
vn 0.000000 1.000000 0.000000
vn 0.000000 0.000000 -1.000000
vn 0.000000 0.000000 -1.000000
vn 0.000000 0.000000 -1.000000
vn 0.000000 0.000000 -1.000000
vn 0.000000 -1.000000 0.000000
vn 0.000000 -1.000000 0.000000
vn 0.000000 -1.000000 0.000000
vn 0.000000 -1.000000 0.000000
vn 1.000000 0.000000 0.000000
vn 1.000000 0.000000 0.000000
vn 1.000000 0.000000 0.000000
vn 1.000000 0.000000 0.000000
vn -1.000000 0.000000 0.000000
vn -1.000000 0.000000 0.000000
vn -1.000000 0.000000 0.000000
vn -1.000000 0.000000 0.000000
s off
g pasted__pasted__pasted__pasted__pasted__pCube1 pasted__pasted__pasted__pasted__group8 pasted__pasted__pasted__group11 pasted__pasted__group12 pasted__group13 group14
usemtl lambert11SG
f 4/1/1 3/12/2 1/10/3 2/4/4
f 3/2/5 4/1/6 6/5/7 5/14/8
f 8/7/9 7/9/10 5/6/11 6/5/12
f 7/8/13 8/7/14 2/4/15 1/11/16
f 4/1/17 2/4/18 8/7/19 6/5/20
f 1/3/21 3/13/22 5/6/23 7/9/24
