# This file uses centimeters as units for non-parametric coordinates.

mtllib Male_Business_body.mtl
g default
v 2.125709 1.510295 7.976895
v 3.059049 1.510295 7.976895
v 2.125709 1.510295 7.043556
v 3.059049 1.510295 7.043556
v 3.067382 0.040859 7.985228
v 2.117376 0.040859 7.985228
v 3.067382 0.040859 7.035223
v 2.117376 0.040859 7.035223
vt 0.479212 0.700122
vt 0.479212 0.777115
vt 0.400276 0.777790
vt 0.402152 0.700090
vt 0.404180 0.967728
vt 0.478536 0.967051
vt 0.330499 0.886120
vt 0.329883 0.779141
vt 0.400352 0.887742
vt 0.553706 0.779141
vt 0.480118 0.888757
vt 0.484862 0.779141
vt 0.553685 0.884907
vt 0.623036 0.779141
vt 0.623005 0.884907
vn 0.000000 -1.000000 0.000000
vn 0.000000 -1.000000 0.000000
vn 0.000000 -1.000000 0.000000
vn 0.000000 -1.000000 0.000000
vn 0.000000 0.005670 0.999984
vn 0.000000 0.005670 0.999984
vn 0.000000 0.005670 0.999984
vn 0.000000 0.005670 0.999984
vn 0.000000 1.000000 0.000000
vn 0.000000 1.000000 0.000000
vn 0.000000 1.000000 0.000000
vn 0.000000 1.000000 0.000000
vn 0.000000 0.005670 -0.999984
vn 0.000000 0.005670 -0.999984
vn 0.000000 0.005670 -0.999984
vn 0.000000 0.005670 -0.999984
vn 0.999984 0.005670 0.000000
vn 0.999984 0.005670 0.000000
vn 0.999984 0.005670 0.000000
vn 0.999984 0.005670 0.000000
vn -0.999984 0.005670 0.000000
vn -0.999984 0.005670 0.000000
vn -0.999984 0.005670 0.000000
vn -0.999984 0.005670 0.000000
s off
g pasted__pasted__pasted__pCube1 pasted__pasted__group8 pasted__group11 group16
usemtl pasted__lambert11SG
f 8/1/1 7/2/2 5/3/3 6/4/4
f 2/9/5 1/7/6 6/8/7 5/3/8
f 1/5/9 2/9/10 4/11/11 3/6/12
f 4/11/13 7/12/14 8/10/15 3/13/16
f 2/9/17 5/3/18 7/2/19 4/11/20
f 6/14/21 1/15/22 3/13/23 8/10/24
