# This file uses centimeters as units for non-parametric coordinates.

mtllib Male_Rectangle_Cashier_body.mtl
g default
v -0.494783 0.040859 0.526847
v 0.505217 0.040859 0.526847
v -0.494783 1.543625 0.526847
v 0.505217 1.543625 0.526847
v -0.494783 1.543625 -0.473153
v 0.505217 1.543625 -0.473153
v -0.494783 0.040859 -0.473153
v 0.505217 0.040859 -0.473153
vt 0.113487 0.758525
vt 0.113487 0.845088
vt 0.355876 0.641432
vt 0.113487 0.641432
vt 0.200211 0.758525
vt 0.277720 0.758525
vt 0.200211 0.641432
vt 0.200211 0.554753
vt 0.277712 0.641432
vt 0.036388 0.641432
vt 0.113487 0.554689
vt 0.036414 0.758525
vt 0.355830 0.758525
vt 0.200211 0.845329
vn 0.000000 0.000000 1.000000
vn 0.000000 0.000000 1.000000
vn 0.000000 0.000000 1.000000
vn 0.000000 0.000000 1.000000
vn 0.000000 1.000000 0.000000
vn 0.000000 1.000000 0.000000
vn 0.000000 1.000000 0.000000
vn 0.000000 1.000000 0.000000
vn 0.000000 0.000000 -1.000000
vn 0.000000 0.000000 -1.000000
vn 0.000000 0.000000 -1.000000
vn 0.000000 0.000000 -1.000000
vn 0.000000 -1.000000 0.000000
vn 0.000000 -1.000000 0.000000
vn 0.000000 -1.000000 0.000000
vn 0.000000 -1.000000 0.000000
vn 1.000000 0.000000 0.000000
vn 1.000000 0.000000 0.000000
vn 1.000000 0.000000 0.000000
vn 1.000000 0.000000 0.000000
vn -1.000000 0.000000 0.000000
vn -1.000000 0.000000 0.000000
vn -1.000000 0.000000 0.000000
vn -1.000000 0.000000 0.000000
s off
g pasted__pasted__pasted__pasted__pCube1 pasted__pasted__pasted__group8 pasted__pasted__group11 pasted__group12 group13
usemtl lambert11SG
f 4/1/1 3/12/2 1/10/3 2/4/4
f 3/2/5 4/1/6 6/5/7 5/14/8
f 8/7/9 7/9/10 5/6/11 6/5/12
f 7/8/13 8/7/14 2/4/15 1/11/16
f 4/1/17 2/4/18 8/7/19 6/5/20
f 1/3/21 3/13/22 5/6/23 7/9/24
