# This file uses centimeters as units for non-parametric coordinates.

mtllib metal_can.mtl
g default
v 0.881820 0.623793 0.067985
v 0.828748 0.623793 -0.036175
v 0.746086 0.623793 -0.118837
v 0.641927 0.623793 -0.171909
v 0.526465 0.623793 -0.190196
v 0.411003 0.623793 -0.171909
v 0.306843 0.623793 -0.118837
v 0.224181 0.623793 -0.036175
v 0.171109 0.623793 0.067985
v 0.152822 0.623793 0.183447
v 0.171109 0.623793 0.298909
v 0.224182 0.623793 0.403068
v 0.306843 0.623793 0.485730
v 0.411003 0.623793 0.538802
v 0.526465 0.623793 0.557089
v 0.641927 0.623793 0.538802
v 0.746086 0.623793 0.485730
v 0.828748 0.623793 0.403068
v 0.881820 0.623793 0.298909
v 0.900107 0.623793 0.183447
v 0.881820 1.640329 0.067985
v 0.828748 1.640329 -0.036175
v 0.746086 1.640329 -0.118837
v 0.641927 1.640329 -0.171909
v 0.526465 1.640329 -0.190196
v 0.411003 1.640329 -0.171909
v 0.306843 1.640329 -0.118837
v 0.224181 1.640329 -0.036175
v 0.171109 1.640329 0.067985
v 0.152822 1.640329 0.183447
v 0.171109 1.640329 0.298909
v 0.224182 1.640329 0.403068
v 0.306843 1.640329 0.485730
v 0.411003 1.640329 0.538802
v 0.526465 1.640329 0.557089
v 0.641927 1.640329 0.538802
v 0.746086 1.640329 0.485730
v 0.828748 1.640329 0.403068
v 0.881820 1.640329 0.298909
v 0.900107 1.640329 0.183447
v 0.526465 0.623793 0.183447
v 0.526465 1.640329 0.183447
vt 0.972992 0.873050
vt 0.961024 0.849560
vt 0.942382 0.830919
vt 0.918893 0.818950
vt 0.892854 0.814826
vt 0.866816 0.818950
vt 0.843326 0.830919
vt 0.824684 0.849560
vt 0.812716 0.873050
vt 0.808592 0.899089
vt 0.812716 0.925127
vt 0.824684 0.948617
vt 0.843326 0.967258
vt 0.866816 0.979227
vt 0.892854 0.983351
vt 0.918893 0.979227
vt 0.942382 0.967258
vt 0.961024 0.948617
vt 0.972992 0.925127
vt 0.977117 0.899089
vt 0.452367 0.804062
vt 0.469781 0.804062
vt 0.487722 0.804062
vt 0.506047 0.804062
vt 0.523281 0.804062
vt 0.540328 0.804062
vt 0.556689 0.804062
vt 0.572912 0.804062
vt 0.588721 0.804062
vt 0.604447 0.804062
vt 0.620030 0.804062
vt 0.635614 0.804062
vt 0.651334 0.804062
vt 0.667144 0.804062
vt 0.683360 0.804062
vt 0.699747 0.804062
vt 0.716789 0.804062
vt 0.734093 0.804062
vt 0.752434 0.804062
vt 0.770493 0.804062
vt 0.788010 0.804062
vt 0.452115 0.964085
vt 0.469631 0.964085
vt 0.487690 0.964085
vt 0.506032 0.964085
vt 0.523335 0.964085
vt 0.540378 0.964085
vt 0.556764 0.964085
vt 0.572980 0.964085
vt 0.588790 0.964085
vt 0.604511 0.964085
vt 0.620094 0.964085
vt 0.635678 0.964085
vt 0.651404 0.964085
vt 0.667212 0.964085
vt 0.683436 0.964085
vt 0.699797 0.964085
vt 0.716843 0.964085
vt 0.734079 0.964085
vt 0.752402 0.964085
vt 0.770343 0.964085
vt 0.787758 0.964085
vt 0.972992 0.872834
vt 0.961024 0.849344
vt 0.942382 0.830703
vt 0.918893 0.818734
vt 0.892854 0.814610
vt 0.866816 0.818734
vt 0.843326 0.830703
vt 0.824684 0.849344
vt 0.812716 0.872834
vt 0.808592 0.898872
vt 0.812716 0.924911
vt 0.824684 0.948401
vt 0.843326 0.967042
vt 0.866816 0.979011
vt 0.892854 0.983135
vt 0.918893 0.979011
vt 0.942382 0.967042
vt 0.961024 0.948401
vt 0.972992 0.924911
vt 0.977117 0.898872
vt 0.892854 0.895718
vt 0.892854 0.895502
vn 0.951057 0.000000 -0.309016
vn 0.809017 0.000000 -0.587785
vn 0.809017 0.000000 -0.587785
vn 0.951057 0.000000 -0.309016
vn 0.587785 0.000000 -0.809017
vn 0.587785 0.000000 -0.809017
vn 0.309017 0.000000 -0.951057
vn 0.309017 0.000000 -0.951057
vn -0.000000 0.000000 -1.000000
vn -0.000000 0.000000 -1.000000
vn -0.309017 0.000000 -0.951056
vn -0.309017 0.000000 -0.951056
vn -0.587785 0.000000 -0.809017
vn -0.587785 0.000000 -0.809017
vn -0.809017 0.000000 -0.587785
vn -0.809017 0.000000 -0.587785
vn -0.951057 0.000000 -0.309017
vn -0.951057 0.000000 -0.309017
vn -1.000000 0.000000 0.000000
vn -1.000000 0.000000 0.000000
vn -0.951057 0.000000 0.309017
vn -0.951057 0.000000 0.309017
vn -0.809017 0.000000 0.587785
vn -0.809017 0.000000 0.587785
vn -0.587785 0.000000 0.809017
vn -0.587785 0.000000 0.809017
vn -0.309017 0.000000 0.951057
vn -0.309017 0.000000 0.951057
vn 0.000000 0.000000 1.000000
vn 0.000000 0.000000 1.000000
vn 0.309017 0.000000 0.951057
vn 0.309017 0.000000 0.951057
vn 0.587785 0.000000 0.809017
vn 0.587785 0.000000 0.809017
vn 0.809017 0.000000 0.587785
vn 0.809017 0.000000 0.587785
vn 0.951057 0.000000 0.309017
vn 0.951057 0.000000 0.309017
vn 1.000000 0.000000 0.000001
vn 1.000000 0.000000 0.000001
vn 0.000000 -1.000000 0.000000
vn 0.000000 -1.000000 0.000000
vn 0.000000 -1.000000 0.000000
vn 0.000000 -1.000000 0.000000
vn 0.000000 -1.000000 0.000000
vn 0.000000 -1.000000 0.000000
vn 0.000000 -1.000000 0.000000
vn 0.000000 -1.000000 0.000000
vn 0.000000 -1.000000 0.000000
vn 0.000000 -1.000000 0.000000
vn 0.000000 -1.000000 0.000000
vn 0.000000 -1.000000 0.000000
vn 0.000000 -1.000000 0.000000
vn 0.000000 -1.000000 0.000000
vn 0.000000 -1.000000 0.000000
vn 0.000000 -1.000000 0.000000
vn 0.000000 -1.000000 0.000000
vn 0.000000 -1.000000 0.000000
vn 0.000000 -1.000000 0.000000
vn 0.000000 -1.000000 0.000000
vn 0.000000 -1.000000 0.000000
vn 0.000000 1.000000 0.000000
vn 0.000000 1.000000 0.000000
vn 0.000000 1.000000 0.000000
vn 0.000000 1.000000 0.000000
vn 0.000000 1.000000 0.000000
vn 0.000000 1.000000 0.000000
vn 0.000000 1.000000 0.000000
vn 0.000000 1.000000 0.000000
vn 0.000000 1.000000 0.000000
vn 0.000000 1.000000 0.000000
vn 0.000000 1.000000 0.000000
vn 0.000000 1.000000 0.000000
vn 0.000000 1.000000 0.000000
vn 0.000000 1.000000 0.000000
vn 0.000000 1.000000 0.000000
vn 0.000000 1.000000 0.000000
vn 0.000000 1.000000 0.000000
vn 0.000000 1.000000 0.000000
vn 0.000000 1.000000 0.000000
vn 0.000000 1.000000 0.000000
vn 0.000000 1.000000 0.000000
s 1
g pCylinder19
usemtl lambert6SG
f 1/21/1 2/22/2 22/43/3 21/42/4
f 2/22/2 3/23/5 23/44/6 22/43/3
f 3/23/5 4/24/7 24/45/8 23/44/6
f 4/24/7 5/25/9 25/46/10 24/45/8
f 5/25/9 6/26/11 26/47/12 25/46/10
f 6/26/11 7/27/13 27/48/14 26/47/12
f 7/27/13 8/28/15 28/49/16 27/48/14
f 8/28/15 9/29/17 29/50/18 28/49/16
f 9/29/17 10/30/19 30/51/20 29/50/18
f 10/30/19 11/31/21 31/52/22 30/51/20
f 11/31/21 12/32/23 32/53/24 31/52/22
f 12/32/23 13/33/25 33/54/26 32/53/24
f 13/33/25 14/34/27 34/55/28 33/54/26
f 14/34/27 15/35/29 35/56/30 34/55/28
f 15/35/29 16/36/31 36/57/32 35/56/30
f 16/36/31 17/37/33 37/58/34 36/57/32
f 17/37/33 18/38/35 38/59/36 37/58/34
f 18/38/35 19/39/37 39/60/38 38/59/36
f 19/39/37 20/40/39 40/61/40 39/60/38
f 20/40/39 1/41/1 21/62/4 40/61/40
s 2
f 2/2/41 1/1/42 41/83/43
f 3/3/44 2/2/41 41/83/43
f 4/4/45 3/3/44 41/83/43
f 5/5/46 4/4/45 41/83/43
f 6/6/47 5/5/46 41/83/43
f 7/7/48 6/6/47 41/83/43
f 8/8/49 7/7/48 41/83/43
f 9/9/50 8/8/49 41/83/43
f 10/10/51 9/9/50 41/83/43
f 11/11/52 10/10/51 41/83/43
f 12/12/53 11/11/52 41/83/43
f 13/13/54 12/12/53 41/83/43
f 14/14/55 13/13/54 41/83/43
f 15/15/56 14/14/55 41/83/43
f 16/16/57 15/15/56 41/83/43
f 17/17/58 16/16/57 41/83/43
f 18/18/59 17/17/58 41/83/43
f 19/19/60 18/18/59 41/83/43
f 20/20/61 19/19/60 41/83/43
f 1/1/42 20/20/61 41/83/43
s 3
f 21/81/62 22/80/63 42/84/64
f 22/80/63 23/79/65 42/84/64
f 23/79/65 24/78/66 42/84/64
f 24/78/66 25/77/67 42/84/64
f 25/77/67 26/76/68 42/84/64
f 26/76/68 27/75/69 42/84/64
f 27/75/69 28/74/70 42/84/64
f 28/74/70 29/73/71 42/84/64
f 29/73/71 30/72/72 42/84/64
f 30/72/72 31/71/73 42/84/64
f 31/71/73 32/70/74 42/84/64
f 32/70/74 33/69/75 42/84/64
f 33/69/75 34/68/76 42/84/64
f 34/68/76 35/67/77 42/84/64
f 35/67/77 36/66/78 42/84/64
f 36/66/78 37/65/79 42/84/64
f 37/65/79 38/64/80 42/84/64
f 38/64/80 39/63/81 42/84/64
f 39/63/81 40/82/82 42/84/64
f 40/82/82 21/81/62 42/84/64
