# This file uses centimeters as units for non-parametric coordinates.

mtllib metal_can.mtl
g default
v 1.105180 0.623793 0.468708
v 1.052108 0.623793 0.364548
v 0.969446 0.623793 0.281886
v 0.865287 0.623793 0.228814
v 0.749825 0.623793 0.210527
v 0.634363 0.623793 0.228814
v 0.530203 0.623793 0.281886
v 0.447541 0.623793 0.364548
v 0.394469 0.623793 0.468708
v 0.376182 0.623793 0.584170
v 0.394469 0.623793 0.699631
v 0.447541 0.623793 0.803791
v 0.530203 0.623793 0.886453
v 0.634363 0.623793 0.939525
v 0.749825 0.623793 0.957812
v 0.865287 0.623793 0.939525
v 0.969446 0.623793 0.886453
v 1.052108 0.623793 0.803791
v 1.105180 0.623793 0.699631
v 1.123467 0.623793 0.584170
v 1.105180 1.640329 0.468708
v 1.052108 1.640329 0.364548
v 0.969446 1.640329 0.281886
v 0.865287 1.640329 0.228814
v 0.749825 1.640329 0.210527
v 0.634363 1.640329 0.228814
v 0.530203 1.640329 0.281886
v 0.447541 1.640329 0.364548
v 0.394469 1.640329 0.468708
v 0.376182 1.640329 0.584170
v 0.394469 1.640329 0.699631
v 0.447541 1.640329 0.803791
v 0.530203 1.640329 0.886453
v 0.634363 1.640329 0.939525
v 0.749825 1.640329 0.957812
v 0.865287 1.640329 0.939525
v 0.969446 1.640329 0.886453
v 1.052108 1.640329 0.803791
v 1.105180 1.640329 0.699631
v 1.123467 1.640329 0.584170
v 0.749825 0.623793 0.584170
v 0.749825 1.640329 0.584170
vt 0.958493 0.776903
vt 0.936300 0.733345
vt 0.901732 0.698778
vt 0.858175 0.676584
vt 0.809891 0.668937
vt 0.761607 0.676584
vt 0.718049 0.698778
vt 0.683482 0.733345
vt 0.661288 0.776903
vt 0.653641 0.825187
vt 0.661288 0.873471
vt 0.683482 0.917028
vt 0.718049 0.951596
vt 0.761607 0.973789
vt 0.809891 0.981437
vt 0.858175 0.973789
vt 0.901732 0.951596
vt 0.936300 0.917028
vt 0.958493 0.873471
vt 0.966141 0.825187
vt 0.016589 0.718704
vt 0.045261 0.718704
vt 0.074800 0.718704
vt 0.104971 0.718704
vt 0.133347 0.718704
vt 0.161414 0.718704
vt 0.188351 0.718704
vt 0.215063 0.718704
vt 0.241092 0.718704
vt 0.266983 0.718704
vt 0.292641 0.718704
vt 0.318298 0.718704
vt 0.344182 0.718704
vt 0.370212 0.718704
vt 0.396911 0.718704
vt 0.423891 0.718704
vt 0.451951 0.718704
vt 0.480442 0.718704
vt 0.510639 0.718704
vt 0.540373 0.718704
vt 0.569213 0.718704
vt 0.016174 0.982175
vt 0.045014 0.982175
vt 0.074748 0.982175
vt 0.104946 0.982175
vt 0.133436 0.982175
vt 0.161496 0.982175
vt 0.188476 0.982175
vt 0.215175 0.982175
vt 0.241205 0.982175
vt 0.267089 0.982175
vt 0.292746 0.982175
vt 0.318404 0.982175
vt 0.344296 0.982175
vt 0.370324 0.982175
vt 0.397036 0.982175
vt 0.423974 0.982175
vt 0.452040 0.982175
vt 0.480418 0.982175
vt 0.510587 0.982175
vt 0.540125 0.982175
vt 0.568798 0.982175
vt 0.958493 0.776502
vt 0.936300 0.732944
vt 0.901732 0.698377
vt 0.858175 0.676183
vt 0.809891 0.668536
vt 0.761607 0.676183
vt 0.718049 0.698377
vt 0.683482 0.732944
vt 0.661288 0.776502
vt 0.653641 0.824786
vt 0.661288 0.873070
vt 0.683482 0.916627
vt 0.718049 0.951195
vt 0.761607 0.973388
vt 0.809891 0.981036
vt 0.858175 0.973388
vt 0.901732 0.951195
vt 0.936300 0.916627
vt 0.958493 0.873070
vt 0.966141 0.824786
vt 0.809891 0.818937
vt 0.809891 0.818536
vn 0.951057 0.000000 -0.309016
vn 0.809017 0.000000 -0.587785
vn 0.809017 0.000000 -0.587785
vn 0.951057 0.000000 -0.309016
vn 0.587785 0.000000 -0.809017
vn 0.587785 0.000000 -0.809017
vn 0.309017 0.000000 -0.951057
vn 0.309017 0.000000 -0.951057
vn -0.000000 0.000000 -1.000000
vn -0.000000 0.000000 -1.000000
vn -0.309017 0.000000 -0.951056
vn -0.309017 0.000000 -0.951056
vn -0.587785 0.000000 -0.809017
vn -0.587785 0.000000 -0.809017
vn -0.809017 0.000000 -0.587785
vn -0.809017 0.000000 -0.587785
vn -0.951057 0.000000 -0.309017
vn -0.951057 0.000000 -0.309017
vn -1.000000 0.000000 0.000000
vn -1.000000 0.000000 0.000000
vn -0.951057 0.000000 0.309017
vn -0.951057 0.000000 0.309017
vn -0.809017 0.000000 0.587785
vn -0.809017 0.000000 0.587785
vn -0.587785 0.000000 0.809017
vn -0.587785 0.000000 0.809017
vn -0.309017 0.000000 0.951057
vn -0.309017 0.000000 0.951057
vn 0.000000 0.000000 1.000000
vn 0.000000 0.000000 1.000000
vn 0.309017 0.000000 0.951057
vn 0.309017 0.000000 0.951057
vn 0.587785 0.000000 0.809017
vn 0.587785 0.000000 0.809017
vn 0.809017 0.000000 0.587785
vn 0.809017 0.000000 0.587785
vn 0.951057 0.000000 0.309017
vn 0.951057 0.000000 0.309017
vn 1.000000 0.000000 0.000001
vn 1.000000 0.000000 0.000001
vn 0.000000 -1.000000 0.000000
vn 0.000000 -1.000000 0.000000
vn 0.000000 -1.000000 0.000000
vn 0.000000 -1.000000 0.000000
vn 0.000000 -1.000000 0.000000
vn 0.000000 -1.000000 0.000000
vn 0.000000 -1.000000 0.000000
vn 0.000000 -1.000000 0.000000
vn 0.000000 -1.000000 0.000000
vn 0.000000 -1.000000 0.000000
vn 0.000000 -1.000000 0.000000
vn 0.000000 -1.000000 0.000000
vn 0.000000 -1.000000 0.000000
vn 0.000000 -1.000000 0.000000
vn 0.000000 -1.000000 0.000000
vn 0.000000 -1.000000 0.000000
vn 0.000000 -1.000000 0.000000
vn 0.000000 -1.000000 0.000000
vn 0.000000 -1.000000 0.000000
vn 0.000000 -1.000000 0.000000
vn 0.000000 -1.000000 0.000000
vn 0.000000 1.000000 0.000000
vn 0.000000 1.000000 0.000000
vn 0.000000 1.000000 0.000000
vn 0.000000 1.000000 0.000000
vn 0.000000 1.000000 0.000000
vn 0.000000 1.000000 0.000000
vn 0.000000 1.000000 0.000000
vn 0.000000 1.000000 0.000000
vn 0.000000 1.000000 0.000000
vn 0.000000 1.000000 0.000000
vn 0.000000 1.000000 0.000000
vn 0.000000 1.000000 0.000000
vn 0.000000 1.000000 0.000000
vn 0.000000 1.000000 0.000000
vn 0.000000 1.000000 0.000000
vn 0.000000 1.000000 0.000000
vn 0.000000 1.000000 0.000000
vn 0.000000 1.000000 0.000000
vn 0.000000 1.000000 0.000000
vn 0.000000 1.000000 0.000000
vn 0.000000 1.000000 0.000000
s 1
g pCylinder19
usemtl lambert2SG
f 1/21/1 2/22/2 22/43/3 21/42/4
f 2/22/2 3/23/5 23/44/6 22/43/3
f 3/23/5 4/24/7 24/45/8 23/44/6
f 4/24/7 5/25/9 25/46/10 24/45/8
f 5/25/9 6/26/11 26/47/12 25/46/10
f 6/26/11 7/27/13 27/48/14 26/47/12
f 7/27/13 8/28/15 28/49/16 27/48/14
f 8/28/15 9/29/17 29/50/18 28/49/16
f 9/29/17 10/30/19 30/51/20 29/50/18
f 10/30/19 11/31/21 31/52/22 30/51/20
f 11/31/21 12/32/23 32/53/24 31/52/22
f 12/32/23 13/33/25 33/54/26 32/53/24
f 13/33/25 14/34/27 34/55/28 33/54/26
f 14/34/27 15/35/29 35/56/30 34/55/28
f 15/35/29 16/36/31 36/57/32 35/56/30
f 16/36/31 17/37/33 37/58/34 36/57/32
f 17/37/33 18/38/35 38/59/36 37/58/34
f 18/38/35 19/39/37 39/60/38 38/59/36
f 19/39/37 20/40/39 40/61/40 39/60/38
f 20/40/39 1/41/1 21/62/4 40/61/40
s 2
f 2/2/41 1/1/42 41/83/43
f 3/3/44 2/2/41 41/83/43
f 4/4/45 3/3/44 41/83/43
f 5/5/46 4/4/45 41/83/43
f 6/6/47 5/5/46 41/83/43
f 7/7/48 6/6/47 41/83/43
f 8/8/49 7/7/48 41/83/43
f 9/9/50 8/8/49 41/83/43
f 10/10/51 9/9/50 41/83/43
f 11/11/52 10/10/51 41/83/43
f 12/12/53 11/11/52 41/83/43
f 13/13/54 12/12/53 41/83/43
f 14/14/55 13/13/54 41/83/43
f 15/15/56 14/14/55 41/83/43
f 16/16/57 15/15/56 41/83/43
f 17/17/58 16/16/57 41/83/43
f 18/18/59 17/17/58 41/83/43
f 19/19/60 18/18/59 41/83/43
f 20/20/61 19/19/60 41/83/43
f 1/1/42 20/20/61 41/83/43
s 3
f 21/81/62 22/80/63 42/84/64
f 22/80/63 23/79/65 42/84/64
f 23/79/65 24/78/66 42/84/64
f 24/78/66 25/77/67 42/84/64
f 25/77/67 26/76/68 42/84/64
f 26/76/68 27/75/69 42/84/64
f 27/75/69 28/74/70 42/84/64
f 28/74/70 29/73/71 42/84/64
f 29/73/71 30/72/72 42/84/64
f 30/72/72 31/71/73 42/84/64
f 31/71/73 32/70/74 42/84/64
f 32/70/74 33/69/75 42/84/64
f 33/69/75 34/68/76 42/84/64
f 34/68/76 35/67/77 42/84/64
f 35/67/77 36/66/78 42/84/64
f 36/66/78 37/65/79 42/84/64
f 37/65/79 38/64/80 42/84/64
f 38/64/80 39/63/81 42/84/64
f 39/63/81 40/82/82 42/84/64
f 40/82/82 21/81/62 42/84/64
