# This file uses centimeters as units for non-parametric coordinates.

mtllib shelf_singlesided.mtl
g default
v 0.053971 0.058394 4.369208
v 0.466973 0.058394 4.369208
v 0.053971 8.393612 4.369208
v 0.053971 8.393612 -3.966011
v 0.053971 0.058394 -3.966011
v 0.466973 0.058394 -3.966011
v 0.466973 6.139024 4.369208
v 0.053971 6.139042 4.369208
v 0.053971 5.780738 4.369208
v 0.053971 5.780738 -3.966011
v 0.053971 6.139042 -3.966011
v 0.466973 6.139024 -3.966011
v 0.466973 3.466722 4.369208
v 0.053971 3.108436 4.369208
v 0.053971 3.466739 4.369208
v 0.053971 3.108436 -3.966011
v 0.053971 3.466739 -3.966011
v 0.466973 3.466722 -3.966011
v 0.466973 0.606277 4.369208
v 0.053971 0.606277 4.369208
v 0.053971 0.606277 -3.966011
v 0.466973 0.606277 -3.966011
v 2.569338 6.139042 4.369208
v 2.569338 6.139042 -3.966011
v 2.569338 3.466739 4.369208
v 2.569338 3.466739 -3.966011
v 3.323521 0.058394 -3.966011
v 3.323521 0.058394 4.369208
v 3.323521 0.606277 -3.966011
v 3.323521 0.606277 4.369208
v 0.825241 5.780738 4.369208
v 0.466973 5.422470 4.369208
v 0.466973 5.422470 -3.966011
v 0.825241 5.780738 -3.966011
v 0.825241 3.108436 4.369208
v 0.466973 2.750168 4.369208
v 0.466973 2.750168 -3.966011
v 0.825241 3.108436 -3.966011
v 2.390204 5.780738 4.369208
v 2.569338 5.959872 4.369208
v 2.390204 5.780738 -3.966011
v 2.569338 5.959872 -3.966011
v 2.390204 3.108436 4.369208
v 2.569338 3.287570 4.369208
v 2.390204 3.108436 -3.966011
v 2.569338 3.287570 -3.966011
v 0.287839 8.393612 4.369208
v 0.466973 8.214478 4.369208
v 0.466973 8.214478 -3.966011
v 0.287839 8.393612 -3.966011
v 0.053971 8.214478 4.369208
v 0.053971 8.214478 -3.966011
vt 0.014693 0.964170
vt 0.025958 0.964620
vt 0.387980 0.964745
vt 0.431051 0.935735
vt 0.430115 0.882421
vt 0.032834 0.048004
vt 0.403880 0.964745
vt 0.407897 0.313919
vt 0.430250 0.813614
vt 0.597901 0.813617
vt 0.429773 0.875187
vt 0.035916 0.867235
vt 0.597099 0.935739
vt 0.430876 0.980324
vt 0.036760 0.593990
vt 0.598035 0.882426
vt 0.430649 0.928504
vt 0.035884 0.314326
vt 0.598453 0.824793
vt 0.389552 0.030354
vt 0.429699 0.824790
vt 0.387110 0.291853
vt 0.036046 0.780074
vt 0.037016 0.507563
vt 0.034647 0.170485
vt 0.408964 0.194229
vt 0.386369 0.193830
vt 0.035401 0.193336
vt 0.597502 0.928507
vt 0.770989 0.992035
vt 0.016745 0.293529
vt 0.770989 0.951683
vt 0.598380 0.875188
vt 0.403298 0.688740
vt 0.770989 0.992035
vt 0.770989 0.951683
vt 0.385424 0.313733
vt 0.746334 0.972903
vt 0.385534 0.674405
vt 0.746333 0.972903
vt 0.385089 0.402261
vt 0.404078 0.703167
vt 0.770989 0.992035
vt 0.386086 0.866804
vt 0.746335 0.972904
vt 0.770989 0.992035
vt 0.402418 0.416592
vt 0.746334 0.972903
vt 0.385605 0.695615
vt 0.385619 0.779018
vt 0.385055 0.423365
vt 0.384818 0.506213
vt 0.597275 0.980327
vt 0.403092 0.431038
vt 0.385001 0.593348
vt 0.036085 0.772660
vt 0.385597 0.761014
vt 0.036990 0.500200
vt 0.384846 0.488328
vt 0.387349 0.953612
vt 0.036033 0.761763
vt 0.385597 0.771633
vt 0.036934 0.489617
vt 0.384806 0.498875
vt 0.034892 0.956985
vt 0.016429 0.314492
vt 0.597197 0.976752
vt 0.430954 0.976749
vt 0.402691 0.314404
vt 0.016191 0.866749
vt 0.035573 0.704817
vt 0.015047 0.955450
vt 0.403880 0.953806
vt 0.018012 0.430367
vt 0.036623 0.430350
vt 0.036332 0.675056
vt 0.017672 0.689527
vt 0.036446 0.402934
vt 0.017716 0.416673
vt 0.032779 0.029849
vt 0.034533 0.293655
vt 0.630878 0.972832
vt 0.617845 0.964093
vt 0.630878 0.972832
vt 0.617845 0.964093
vt 0.036566 0.424615
vt 0.036071 0.696166
vt 0.617845 0.951684
vt 0.770989 0.951684
vt 0.617845 0.951683
vt 0.770989 0.951684
vt 0.617845 0.963918
vt 0.630878 0.972832
vt 0.617845 0.951683
vt 0.617845 0.963918
vt 0.630878 0.972832
vt 0.617845 0.951683
vt 0.012459 0.193396
vt 0.387143 0.170980
vt 0.012971 0.314073
vt 0.389430 0.048515
vt 0.388097 0.974801
vt 0.404687 0.292757
vt 0.402299 0.593107
vt 0.385984 0.431130
vt 0.403880 0.866398
vt 0.386691 0.703326
vt 0.018898 0.593250
vt 0.016523 0.704293
vn 0.000000 1.000000 0.000000
vn 0.000000 1.000000 0.000000
vn 0.000000 1.000000 0.000000
vn 0.000000 1.000000 0.000000
vn 0.000000 -1.000000 0.000000
vn 0.000000 -1.000000 0.000000
vn 0.000000 -1.000000 0.000000
vn 0.000000 -1.000000 0.000000
vn 1.000000 0.000000 0.000000
vn 1.000000 0.000000 0.000000
vn 1.000000 0.000000 0.000000
vn 1.000000 0.000000 0.000000
vn -1.000000 0.000000 0.000000
vn -1.000000 0.000000 0.000000
vn -1.000000 0.000000 0.000000
vn -1.000000 0.000000 0.000000
vn 1.000000 0.000000 0.000000
vn 1.000000 0.000000 0.000000
vn 1.000000 0.000000 0.000000
vn 1.000000 0.000000 0.000000
vn -1.000000 0.000000 0.000000
vn -1.000000 0.000000 0.000000
vn -1.000000 0.000000 0.000000
vn -1.000000 0.000000 0.000000
vn 0.000000 0.000000 1.000000
vn 0.000000 0.000000 1.000000
vn -0.000003 0.000000 1.000000
vn -0.000007 0.000000 1.000000
vn 0.000007 0.000000 -1.000000
vn 0.000003 0.000000 -1.000000
vn 0.000000 0.000000 -1.000000
vn 0.000000 0.000000 -1.000000
vn 1.000000 0.000000 0.000000
vn 1.000000 0.000000 0.000000
vn 1.000000 0.000000 0.000000
vn 1.000000 0.000000 0.000000
vn -1.000000 0.000000 0.000000
vn -1.000000 0.000000 0.000000
vn -1.000000 0.000000 0.000000
vn -1.000000 0.000000 0.000000
vn 0.000000 0.000000 1.000000
vn 0.000001 0.000000 1.000000
vn 0.000000 0.000000 1.000000
vn 0.000000 0.000000 1.000000
vn -1.000000 -0.000000 0.000000
vn -1.000000 -0.000000 0.000000
vn 0.000000 0.000000 -1.000000
vn 0.000000 0.000000 -1.000000
vn -0.000001 0.000000 -1.000000
vn 0.000000 0.000000 -1.000000
vn 1.000000 0.000000 0.000000
vn 1.000000 0.000000 0.000000
vn 1.000000 0.000000 0.000000
vn 1.000000 0.000000 0.000000
vn -0.000004 0.000000 1.000000
vn 0.000001 0.000000 1.000000
vn 0.000001 0.000000 1.000000
vn 0.000000 0.000000 1.000000
vn 0.000000 0.000000 -1.000000
vn -0.000001 0.000000 -1.000000
vn -0.000001 0.000000 -1.000000
vn 0.000004 0.000000 -1.000000
vn 1.000000 0.000000 0.000000
vn 1.000000 0.000000 0.000000
vn 1.000000 0.000000 0.000000
vn 1.000000 0.000000 0.000000
vn -0.000006 0.000000 1.000000
vn -0.000008 0.000000 1.000000
vn 0.000008 0.000000 -1.000000
vn 0.000006 0.000000 -1.000000
vn 1.000000 0.000000 0.000000
vn 1.000000 0.000000 0.000000
vn 1.000000 0.000000 0.000000
vn 1.000000 0.000000 0.000000
vn 0.000000 0.000000 1.000000
vn 0.000000 0.000000 1.000000
vn -0.000001 0.000000 1.000000
vn 0.000000 -1.000000 0.000000
vn 0.000000 -1.000000 0.000000
vn 0.000000 -1.000000 0.000000
vn 0.000000 -1.000000 0.000000
vn -0.000009 1.000000 0.000000
vn -0.000009 1.000000 0.000000
vn -0.000009 1.000000 0.000000
vn -0.000009 1.000000 0.000000
vn 0.000000 0.000000 1.000000
vn 0.000000 0.000000 1.000000
vn 0.000001 0.000000 1.000000
vn 0.000000 -1.000000 0.000000
vn 0.000000 -1.000000 0.000000
vn 0.000000 -1.000000 0.000000
vn 0.000000 -1.000000 0.000000
vn -0.000009 1.000000 0.000000
vn -0.000009 1.000000 0.000000
vn -0.000009 1.000000 0.000000
vn -0.000009 1.000000 0.000000
vn 0.000000 -1.000000 0.000000
vn 0.000000 -1.000000 0.000000
vn 0.000000 0.000000 -1.000000
vn 0.000000 0.000000 -1.000000
vn 0.000000 1.000000 0.000000
vn 0.000000 1.000000 0.000000
vn 0.000000 1.000000 0.000000
vn 0.000000 1.000000 0.000000
vn 0.000000 0.000000 1.000000
vn 0.000000 0.000000 1.000000
vn 0.000000 0.000000 -1.000000
vn 0.000000 0.000000 -1.000000
vn -0.000002 0.000000 -1.000000
vn -0.000003 0.000000 -1.000000
vn 0.707107 -0.707106 0.000000
vn 0.707107 -0.707106 0.000000
vn 0.707107 -0.707106 0.000000
vn 0.707107 -0.707106 0.000000
vn 0.707107 -0.707106 0.000000
vn 0.707107 -0.707106 0.000000
vn 0.707107 -0.707106 0.000000
vn 0.707107 -0.707106 0.000000
vn 0.707106 -0.707107 0.000000
vn 0.707106 -0.707107 0.000000
vn 0.707106 -0.707107 0.000000
vn 0.707106 -0.707107 0.000000
vn 0.707107 -0.707107 0.000000
vn 0.707107 -0.707107 0.000000
vn 0.707107 -0.707107 0.000000
vn 0.707107 -0.707107 0.000000
vn 0.707108 0.707106 0.000000
vn 0.707108 0.707106 0.000000
vn 0.707108 0.707106 0.000000
vn 0.707108 0.707106 0.000000
vn -0.000000 0.000000 -1.000000
vn -0.000000 0.000000 -1.000000
vn 0.000000 0.000000 1.000000
vn 0.000000 0.000000 1.000000
vn -1.000000 -0.000000 0.000000
vn -1.000000 -0.000000 0.000000
vn 0.000000 0.000000 -1.000000
vn 0.000000 0.000000 -1.000000
vn 0.000000 0.000000 -1.000000
vn 0.000000 0.000000 -1.000000
vn 0.000001 0.000000 1.000000
vn -0.000001 0.000000 1.000000
s off
g pCube25
usemtl lambert2SG
f 3/1/1 47/2/2 50/3/3 4/102/4
s 1
f 5/20/5 6/101/6 2/6/7 1/80/8
s off
f 23/23/9 40/56/10 42/62/11 24/50/12
s 2
f 9/29/13 8/13/14 11/4/15 10/17/16
s off
f 25/24/17 44/58/18 46/64/19 26/52/20
s 2
f 14/33/21 15/16/22 17/5/23 16/11/24
s 3
f 1/31/25 2/81/26 19/18/27 20/66/28
s 4
f 21/69/29 22/37/30 6/22/31 5/103/32
s off
f 28/25/33 27/99/34 29/27/35 30/28/36
s 2
f 5/9/37 1/10/38 20/19/39 21/21/40
s 3
f 8/70/41 7/12/42 48/65/43 51/72/44
s 2
f 11/4/15 8/13/14 51/67/45 52/68/46
s 4
f 52/73/47 49/60/48 12/44/49 11/106/50
s off
f 7/12/51 12/44/52 49/60/53 48/65/54
s 3
f 15/108/55 13/15/56 32/76/57 8/109/41 9/77/58
s 2
f 17/5/23 15/16/22 9/29/13 10/17/16
s 4
f 10/34/59 11/42/50 33/39/60 18/55/61 17/104/62
s off
f 13/15/63 18/55/64 33/39/65 32/76/66
s 3
f 20/66/28 19/18/27 36/78/67 15/74/55 14/79/68
s 2
f 21/21/40 20/19/39 14/33/21 16/11/24
s 4
f 16/47/69 17/54/62 37/41/70 22/37/30 21/69/29
s off
f 19/18/71 22/37/72 37/41/73 36/78/74
s 3
f 7/91/42 31/38/75 39/84/76 40/85/77
s off
f 31/87/78 34/49/79 41/57/80 39/61/81
f 12/44/82 7/12/83 23/23/84 24/50/85
s 3
f 13/89/56 35/40/86 43/82/87 44/83/88
s off
f 35/86/89 38/51/90 45/59/91 43/63/92
f 18/55/93 13/15/94 25/24/95 26/52/96
s 1
f 2/6/7 6/101/6 27/99/97 28/25/98
s 4
f 6/8/31 22/37/30 29/27/99 27/26/100
s off
f 22/37/101 19/18/102 30/28/103 29/27/104
s 3
f 19/18/27 2/100/26 28/98/105 30/28/106
s 4
f 42/92/107 12/32/49 24/94/108
f 46/95/109 18/36/61 26/97/110
s off
f 31/87/111 32/76/112 33/39/113 34/49/114
f 35/86/115 36/78/116 37/41/117 38/51/118
s 3
f 31/38/75 7/91/42 32/43/57
s 4
f 33/39/60 11/42/50 12/107/49
s 3
f 35/40/86 13/89/56 36/46/67
s 4
f 37/41/70 17/54/62 18/105/61
s off
f 40/56/119 39/61/120 41/57/121 42/62/122
f 44/58/123 43/63/124 45/59/125 46/64/126
f 47/2/127 48/65/128 49/60/129 50/3/130
s 4
f 33/30/60 12/32/49 34/45/131
f 37/35/70 18/36/61 38/48/132
s 3
f 32/76/57 7/71/42 8/109/41
f 36/78/67 13/75/56 15/74/55
f 51/72/44 48/65/43 47/2/133 3/1/134
s 2
f 52/68/46 51/67/45 3/53/135 4/14/136
s 4
f 4/7/137 50/3/138 49/60/48 52/73/47
f 38/48/132 18/36/61 46/95/109 45/96/139
f 34/45/131 12/32/49 42/92/107 41/93/140
s 3
f 13/89/56 44/83/88 25/88/141
f 7/91/42 40/85/77 23/90/142
