# This file uses centimeters as units for non-parametric coordinates.

mtllib sign_pointer.mtl
g default
v -1.157453 1.178720 0.186044
v 1.124086 1.178720 0.186044
v -1.157453 2.633614 0.186044
v 1.124086 2.633614 0.186044
v -1.157453 2.633614 -0.186044
v 1.124086 2.633614 -0.186044
v -1.157453 1.178720 -0.186044
v 1.124086 1.178720 -0.186044
v -0.016684 0.388629 0.000000
vt 0.146431 0.444122
vt 0.405356 0.444201
vt 0.146431 0.645746
vt 0.405356 0.646222
vt 0.146431 0.703919
vt 0.405356 0.702588
vt 0.146431 0.871650
vt 0.478246 0.434600
vt 0.478246 0.652846
vt 0.072827 0.435040
vt 0.072827 0.652880
vt 0.276058 0.331839
vt 0.405356 0.871969
vt 0.275939 0.976271
vt 0.426755 0.145734
vt 0.168628 0.144640
vn 0.000000 -0.033956 0.999423
vn 0.000000 -0.033956 0.999423
vn 0.000000 0.000000 1.000000
vn 0.000000 0.000000 1.000000
vn 0.000000 1.000000 0.000000
vn 0.000000 1.000000 0.000000
vn 0.000000 1.000000 0.000000
vn 0.000000 1.000000 0.000000
vn 0.000000 0.000000 -1.000000
vn 0.000000 0.000000 -1.000000
vn 0.000000 -0.033956 -0.999423
vn 0.000000 -0.033956 -0.999423
vn 0.978982 -0.203949 0.000000
vn 0.978982 -0.203949 0.000000
vn 1.000000 0.000000 0.000000
vn 1.000000 0.000000 0.000000
vn -0.978982 -0.203949 0.000000
vn -0.978982 -0.203949 0.000000
vn -1.000000 0.000000 0.000000
vn -1.000000 0.000000 0.000000
vn 0.000000 -0.229203 -0.973379
vn 0.569369 -0.822082 0.000000
vn 0.000000 -0.229203 0.973379
vn -0.569369 -0.822082 0.000000
s 1
g pCube33
usemtl lambert2SG
f 1/1/1 2/2/2 4/4/3 3/3/4
s off
f 3/3/5 4/4/6 6/6/7 5/5/8
s 2
f 5/5/9 6/6/10 8/13/11 7/7/12
s 3
f 2/2/13 8/8/14 6/9/15 4/4/16
s 4
f 7/10/17 1/1/18 3/3/19 5/11/20
s 2
f 7/7/12 8/13/11 9/14/21
s 3
f 8/8/14 2/2/13 9/15/22
s 1
f 2/2/2 1/1/1 9/12/23
s 4
f 1/1/18 7/10/17 9/16/24
